<mxfile modified="2021-12-16T07:28:54.288Z" host="app.diagrams.net" agent="5.0 (Macintosh; Intel Mac OS X 10_15_7) AppleWebKit/537.36 (KHTML, like Gecko) Chrome/96.0.4664.93 Safari/537.36" etag="j-F3garMmZ4eg0blNOnY" version="15.7.3" type="github">
  <diagram id="WI9T0HZ2pTsCkuznbFz-" name="Page-1">
    <mxGraphModel dx="1270" dy="627" grid="1" gridSize="10" guides="1" tooltips="1" connect="1" arrows="1" fold="1" page="1" pageScale="1" pageWidth="1169" pageHeight="827" math="0" shadow="0">
      <root>
        <mxCell id="0" />
        <mxCell id="1" parent="0" />
        <mxCell id="mdQV8XXlaroIpFqQpkAV-21" style="edgeStyle=orthogonalEdgeStyle;rounded=0;orthogonalLoop=1;jettySize=auto;html=1;" edge="1" parent="1" source="AcxdMaKK0mU5kZiv2lnr-1" target="AcxdMaKK0mU5kZiv2lnr-3">
          <mxGeometry relative="1" as="geometry" />
        </mxCell>
        <mxCell id="AcxdMaKK0mU5kZiv2lnr-1" value="Live Source" style="shape=image;verticalLabelPosition=bottom;labelBackgroundColor=#ffffff;verticalAlign=top;aspect=fixed;imageAspect=0;image=data:image/svg+xml,PHN2ZyB4bWxuczpjYz0iaHR0cDovL2NyZWF0aXZlY29tbW9ucy5vcmcvbnMjIiB4bWxuczpkYz0iaHR0cDovL3B1cmwub3JnL2RjL2VsZW1lbnRzLzEuMS8iIHhtbG5zOmlua3NjYXBlPSJodHRwOi8vd3d3Lmlua3NjYXBlLm9yZy9uYW1lc3BhY2VzL2lua3NjYXBlIiB4bWxuczpyZGY9Imh0dHA6Ly93d3cudzMub3JnLzE5OTkvMDIvMjItcmRmLXN5bnRheC1ucyMiIHhtbG5zOnNvZGlwb2RpPSJodHRwOi8vc29kaXBvZGkuc291cmNlZm9yZ2UubmV0L0RURC9zb2RpcG9kaS0wLmR0ZCIgeG1sbnM6c3ZnPSJodHRwOi8vd3d3LnczLm9yZy8yMDAwL3N2ZyIgeG1sbnM9Imh0dHA6Ly93d3cudzMub3JnLzIwMDAvc3ZnIiB4bWxuczp4bGluaz0iaHR0cDovL3d3dy53My5vcmcvMTk5OS94bGluayIgdmVyc2lvbj0iMS4xIiBpZD0ic3ZnNDYyMjYiIGlua3NjYXBlOnZlcnNpb249IjAuOTIuMyAoMjQwNTU0NiwgMjAxOC0wMy0xMSkiIHNvZGlwb2RpOmRvY25hbWU9ImNhbWVyYS5zdmciIHg9IjBweCIgeT0iMHB4IiB2aWV3Qm94PSIwIDAgNDYuNzggMzUuMTEiIHN0eWxlPSJlbmFibGUtYmFja2dyb3VuZDpuZXcgMCAwIDQ2Ljc4IDM1LjExOyIgeG1sOnNwYWNlPSJwcmVzZXJ2ZSI+JiN4YTs8c29kaXBvZGk6bmFtZWR2aWV3IGJvcmRlcmNvbG9yPSIjNjY2NjY2IiBib3JkZXJvcGFjaXR5PSIxIiBmaXQtbWFyZ2luLWJvdHRvbT0iMCIgZml0LW1hcmdpbi1sZWZ0PSIwIiBmaXQtbWFyZ2luLXJpZ2h0PSIwIiBmaXQtbWFyZ2luLXRvcD0iMCIgZ3JpZHRvbGVyYW5jZT0iMTAiIGd1aWRldG9sZXJhbmNlPSIxMCIgaWQ9Im5hbWVkdmlldzQ2MjI4IiBpbmtzY2FwZTpjdXJyZW50LWxheWVyPSJzdmc0NjIyNiIgaW5rc2NhcGU6Y3g9IjMxLjE4Mzc3NyIgaW5rc2NhcGU6Y3k9IjIzLjQwNTI0OSIgaW5rc2NhcGU6cGFnZW9wYWNpdHk9IjAiIGlua3NjYXBlOnBhZ2VzaGFkb3c9IjIiIGlua3NjYXBlOndpbmRvdy1oZWlnaHQ9IjEwMTciIGlua3NjYXBlOndpbmRvdy1tYXhpbWl6ZWQ9IjEiIGlua3NjYXBlOndpbmRvdy13aWR0aD0iMTkyMCIgaW5rc2NhcGU6d2luZG93LXg9Ii04IiBpbmtzY2FwZTp3aW5kb3cteT0iLTgiIGlua3NjYXBlOnpvb209IjE4LjUxOTI1OSIgb2JqZWN0dG9sZXJhbmNlPSIxMCIgcGFnZWNvbG9yPSIjZmZmZmZmIiBzaG93Z3JpZD0iZmFsc2UiPiYjeGE7CTwvc29kaXBvZGk6bmFtZWR2aWV3PiYjeGE7PGcgaWQ9Imc0NjIyNCI+JiN4YTsJPHRpdGxlIGlkPSJ0aXRsZTQ2MjE3Ij5QYWdlLTE8L3RpdGxlPiYjeGE7CTxnIGlkPSJzaGFwZTEwOC0xIj4mI3hhOwkJPHRpdGxlIGlkPSJ0aXRsZTQ2MjE5Ij5DYW1lcmE8L3RpdGxlPiYjeGE7CQk8cGF0aCBpZD0icGF0aDQ2MjIxIiBpbmtzY2FwZTpjb25uZWN0b3ItY3VydmF0dXJlPSIwIiBzdHlsZT0iZmlsbDojM0Y1NzY1OyIgZD0iTTQ2Ljc4LDEzLjUzYzAsMjAuMTIsMCwyMC4xMiwwLDIwLjEyICAgIGMwLDAuNzMtMC43NCwxLjQ2LTEuODMsMC43M2MtNC4zOS0zLjY2LTQuMzktMy42Ni00LjM5LTMuNjZjMC0wLjczLTEuMDktMC43My0xLjA5LTEuODNjLTEuODMsMC0xLjgzLDAtMS44MywwICAgIGMwLDQuNzYsMCw0Ljc2LDAsNC43NmMwLDAuNzMtMC43MywxLjQ2LTEuODMsMS40NmMtMjkuMjMsMC0yOS4yMywwLTI5LjIzLDBjLTAuNzMsMC0xLjgzLTAuNzMtMS44My0xLjQ2YzAtMTcuMTksMC0xNy4xOSwwLTE3LjE5ICAgIGMwLTEuODMsMS4xLTIuOTMsMS44My0yLjkzYzI5LjIzLDAsMjkuMjMsMCwyOS4yMywwYzEuMSwwLDEuODMsMS4xLDEuODMsMi45M3MwLDEuODMsMCwxLjgzYzEuODMsMCwxLjgzLDAsMS44MywwbDEuMDktMS4xICAgIGM0LjM5LTQuMzksNC4zOS00LjM5LDQuMzktNC4zOUM0Ni4wNCwxMi44LDQ2Ljc4LDEyLjgsNDYuNzgsMTMuNTN6IE0xLjgzLDE0LjYzQzEuMSwxNC42MywwLDE1LjM2LDAsMTYuNDZjMCw2LjIyLDAsNi4yMiwwLDYuMjIgICAgYzAsMC43MywxLjEsMS44MywxLjgzLDEuODNjMS4wOSwwLDIuMTktMS4xLDIuMTktMS44M2MwLTYuMjIsMC02LjIyLDAtNi4yMkM0LjAyLDE1LjM2LDIuOTIsMTQuNjMsMS44MywxNC42M3ogTTI4LjUsMTIuOCAgICBjMy42NiwwLDYuNTgtMi41Niw2LjU4LTYuMjJDMzUuMDgsMi45MywzMi4xNiwwLDI4LjUsMGMtMy42NSwwLTcuMywyLjkzLTcuMyw2LjU4QzIxLjIsMTAuMjQsMjQuODUsMTIuOCwyOC41LDEyLjh6IE0xMy44OSwxMi44ICAgIGMzLjY1LDAsNi41Ny0yLjU2LDYuNTctNi4yMmMwLTMuNjUtMi45Mi02LjU4LTYuNTctNi41OGMtMy42NiwwLTcuMzEsMi45My03LjMxLDYuNThDNi41OCwxMC4yNCwxMC4yMywxMi44LDEzLjg5LDEyLjh6Ii8+JiN4YTsJPC9nPiYjeGE7PC9nPiYjeGE7PC9zdmc+;" parent="1" vertex="1">
          <mxGeometry x="129" y="367" width="64" height="48" as="geometry" />
        </mxCell>
        <mxCell id="mdQV8XXlaroIpFqQpkAV-20" style="edgeStyle=orthogonalEdgeStyle;rounded=0;orthogonalLoop=1;jettySize=auto;html=1;entryX=0;entryY=0.5;entryDx=0;entryDy=0;" edge="1" parent="1" source="AcxdMaKK0mU5kZiv2lnr-3" target="mdQV8XXlaroIpFqQpkAV-2">
          <mxGeometry relative="1" as="geometry">
            <Array as="points">
              <mxPoint x="161" y="150" />
            </Array>
          </mxGeometry>
        </mxCell>
        <mxCell id="mdQV8XXlaroIpFqQpkAV-22" value="rtmp" style="edgeLabel;html=1;align=center;verticalAlign=middle;resizable=0;points=[];" vertex="1" connectable="0" parent="mdQV8XXlaroIpFqQpkAV-20">
          <mxGeometry x="-0.0143" y="1" relative="1" as="geometry">
            <mxPoint as="offset" />
          </mxGeometry>
        </mxCell>
        <mxCell id="AcxdMaKK0mU5kZiv2lnr-3" value="obs&#xa;" style="shape=image;verticalLabelPosition=bottom;labelBackgroundColor=#ffffff;verticalAlign=top;aspect=fixed;imageAspect=0;image=https://bizaladdin-image.baidu.com/0/pic/1377349439_1282484436.jpg;" parent="1" vertex="1">
          <mxGeometry x="129" y="230" width="63" height="63" as="geometry" />
        </mxCell>
        <mxCell id="mdQV8XXlaroIpFqQpkAV-4" style="edgeStyle=orthogonalEdgeStyle;rounded=0;orthogonalLoop=1;jettySize=auto;html=1;dashed=1;" edge="1" parent="1" source="mdQV8XXlaroIpFqQpkAV-2" target="mdQV8XXlaroIpFqQpkAV-3">
          <mxGeometry relative="1" as="geometry" />
        </mxCell>
        <mxCell id="mdQV8XXlaroIpFqQpkAV-11" value="点播场景(支持 hls)" style="edgeLabel;html=1;align=center;verticalAlign=middle;resizable=0;points=[];" vertex="1" connectable="0" parent="mdQV8XXlaroIpFqQpkAV-4">
          <mxGeometry x="0.2057" relative="1" as="geometry">
            <mxPoint as="offset" />
          </mxGeometry>
        </mxCell>
        <mxCell id="mdQV8XXlaroIpFqQpkAV-18" style="edgeStyle=orthogonalEdgeStyle;rounded=0;orthogonalLoop=1;jettySize=auto;html=1;entryX=0.5;entryY=0;entryDx=0;entryDy=0;" edge="1" parent="1" source="mdQV8XXlaroIpFqQpkAV-2" target="mdQV8XXlaroIpFqQpkAV-12">
          <mxGeometry relative="1" as="geometry" />
        </mxCell>
        <mxCell id="mdQV8XXlaroIpFqQpkAV-23" value="直播场景（支持 flv/rtmp/hls）" style="edgeLabel;html=1;align=center;verticalAlign=middle;resizable=0;points=[];" vertex="1" connectable="0" parent="mdQV8XXlaroIpFqQpkAV-18">
          <mxGeometry x="0.3144" relative="1" as="geometry">
            <mxPoint as="offset" />
          </mxGeometry>
        </mxCell>
        <mxCell id="mdQV8XXlaroIpFqQpkAV-2" value="腾讯云直播流处理" style="shape=image;verticalLabelPosition=bottom;labelBackgroundColor=#ffffff;verticalAlign=top;aspect=fixed;imageAspect=0;image=data:image/svg+xml,PHN2ZyB4bWxuczpjYz0iaHR0cDovL2NyZWF0aXZlY29tbW9ucy5vcmcvbnMjIiB4bWxuczpkYz0iaHR0cDovL3B1cmwub3JnL2RjL2VsZW1lbnRzLzEuMS8iIHhtbG5zOmlua3NjYXBlPSJodHRwOi8vd3d3Lmlua3NjYXBlLm9yZy9uYW1lc3BhY2VzL2lua3NjYXBlIiB4bWxuczpyZGY9Imh0dHA6Ly93d3cudzMub3JnLzE5OTkvMDIvMjItcmRmLXN5bnRheC1ucyMiIHhtbG5zOnNvZGlwb2RpPSJodHRwOi8vc29kaXBvZGkuc291cmNlZm9yZ2UubmV0L0RURC9zb2RpcG9kaS0wLmR0ZCIgeG1sbnM6c3ZnPSJodHRwOi8vd3d3LnczLm9yZy8yMDAwL3N2ZyIgeG1sbnM9Imh0dHA6Ly93d3cudzMub3JnLzIwMDAvc3ZnIiB4bWxuczp4bGluaz0iaHR0cDovL3d3dy53My5vcmcvMTk5OS94bGluayIgdmVyc2lvbj0iMS4xIiBpZD0ic3ZnNDM5ODQiIGlua3NjYXBlOnZlcnNpb249IjAuOTIuMyAoMjQwNTU0NiwgMjAxOC0wMy0xMSkiIHNvZGlwb2RpOmRvY25hbWU9ImNsb3VkLnN2ZyIgeD0iMHB4IiB5PSIwcHgiIHZpZXdCb3g9IjAgMCA4NS41NCA0My4xIiBzdHlsZT0iZW5hYmxlLWJhY2tncm91bmQ6bmV3IDAgMCA4NS41NCA0My4xOyIgeG1sOnNwYWNlPSJwcmVzZXJ2ZSI+JiN4YTs8c29kaXBvZGk6bmFtZWR2aWV3IGJvcmRlcmNvbG9yPSIjNjY2NjY2IiBib3JkZXJvcGFjaXR5PSIxIiBmaXQtbWFyZ2luLWJvdHRvbT0iMCIgZml0LW1hcmdpbi1sZWZ0PSIwIiBmaXQtbWFyZ2luLXJpZ2h0PSIwIiBmaXQtbWFyZ2luLXRvcD0iMCIgZ3JpZHRvbGVyYW5jZT0iMTAiIGd1aWRldG9sZXJhbmNlPSIxMCIgaWQ9Im5hbWVkdmlldzQzOTg2IiBpbmtzY2FwZTpjdXJyZW50LWxheWVyPSJzdmc0Mzk4NCIgaW5rc2NhcGU6Y3g9IjQyLjgyODY2NCIgaW5rc2NhcGU6Y3k9IjMwLjkyMDQ4NiIgaW5rc2NhcGU6cGFnZW9wYWNpdHk9IjAiIGlua3NjYXBlOnBhZ2VzaGFkb3c9IjIiIGlua3NjYXBlOndpbmRvdy1oZWlnaHQ9IjEwMTciIGlua3NjYXBlOndpbmRvdy1tYXhpbWl6ZWQ9IjEiIGlua3NjYXBlOndpbmRvdy13aWR0aD0iMTkyMCIgaW5rc2NhcGU6d2luZG93LXg9Ii04IiBpbmtzY2FwZTp3aW5kb3cteT0iLTgiIGlua3NjYXBlOnpvb209IjguNzc5MzQ3NiIgb2JqZWN0dG9sZXJhbmNlPSIxMCIgcGFnZWNvbG9yPSIjZmZmZmZmIiBzaG93Z3JpZD0iZmFsc2UiPiYjeGE7CTwvc29kaXBvZGk6bmFtZWR2aWV3PiYjeGE7PGcgaWQ9Imc0Mzk4MiIgdHJhbnNmb3JtPSJ0cmFuc2xhdGUoLTAuNzUwMTIzMzksLTAuNzUpIj4mI3hhOwk8dGl0bGUgaWQ9InRpdGxlNDM5NjIiPlBhZ2UtMTwvdGl0bGU+JiN4YTsJPGcgaWQ9Imdyb3VwNDgwNS0xIiB0cmFuc2Zvcm09InRyYW5zbGF0ZSgwLjc1MDcwMywtMC43NSkiPiYjeGE7CQk8dGl0bGUgaWQ9InRpdGxlNDM5NjQiPkNsb3VkPC90aXRsZT4mI3hhOwkJPGcgaWQ9InNoYXBlNDgwNi0yIiB0cmFuc2Zvcm09InRyYW5zbGF0ZSg0Mi4wNiwtNS4yNzI1KSI+JiN4YTsJCQk8dGl0bGUgaWQ9InRpdGxlNDM5NjYiPnBhdGgzMjQ0PC90aXRsZT4mI3hhOwkJCSYjeGE7CQkJCTxwYXRoIGlkPSJwYXRoNDM5NjgiIGlua3NjYXBlOmNvbm5lY3Rvci1jdXJ2YXR1cmU9IjAiIHN0eWxlPSJmaWxsOiNGRkZGRkY7c3Ryb2tlOiMwMEJDRjI7c3Ryb2tlLXdpZHRoOjEuNTtzdHJva2UtbWl0ZXJsaW1pdDozOyIgZD0iICAgICBNMzYuNywyMS41MnYtMC4yM2MwLTAuNzYtMC4xMS0xLjUyLTAuMy0yLjI1Yy0wLjI0LTQuNDYtNC4wNS03Ljg4LTguNTEtNy42NGMtMS43NiwwLjEtMy40NCwwLjc2LTQuNzgsMS45ICAgICBjLTEuODQtMi40My00Ljc1LTMuOC03LjgtMy42OWMtNS45MSwwLTEwLjM4LDUuMTYtMTAuNSwxMC45OGMwLDAuNDEsMC4xLDAuNzEsMC4xLDEuMTFDMS44LDIzLjIsMCwyNS44MSwwLDI5LjEyICAgICBjMC4wNSw0Ljc4LDMuODYsOC42Niw4LjY0LDguOGMwLjQ1LDMuMjgsMy40LDYuMzQsOC40NCw2LjM0YzQuMjYsMCw2LjgsMC4zNCw5LjktMy4xNWMxLjUxLDAuODUsMy4yMSwxLjMyLDQuOTUsMS4zNSAgICAgYzYsMCwxMC44LTUuMjUsMTAuOC0xMS4yNUM0Mi43MywyNy4wOSw0MC4zOSwyMy4zNCwzNi43LDIxLjUyeiIvPiYjeGE7CQk8L2c+JiN4YTsJCTxnIGlkPSJzaGFwZTQ4MDctNCI+JiN4YTsJCQk8dGl0bGUgaWQ9InRpdGxlNDM5NzEiPnBhdGgzMjQ2PC90aXRsZT4mI3hhOwkJCTxwYXRoIGlkPSJwYXRoNDM5NzMiIGlua3NjYXBlOmNvbm5lY3Rvci1jdXJ2YXR1cmU9IjAiIHN0eWxlPSJmaWxsOiMyQkM3RjQ7IiBkPSJNNzUsMzMuNjVjMCw2LjA1LTQuNCwxMC45NS05LjgzLDEwLjk1SDkuODMgICAgIEM0LjIyLDQzLjMzLDAsMzcuNTQsMCwzMC45MWMtMC4wMi0xLjYzLDAuMjQtMy4yNiwwLjc1LTQuODFjMC4yMi0wLjY4LDAuNS0xLjM0LDAuODMtMS45N2MxLjk1LTQuMDcsNS45OS02LjcyLDEwLjUtNi44OSAgICAgYzAuMjktMi4yNywwLjk3LTQuNDcsMi4wMi02LjVjMC4yNy0wLjUyLDAuNTUtMS4wMiwwLjg2LTEuNWMzLTQuNjgsNy45Mi03LjczLDEzLjUtNy43M2M4LjE0LDAsMTQuOSw2LjU1LDE2LjI3LDE1LjE3ICAgICBjMS45NS0xLjg1LDQuNTMtMi44OCw3LjIxLTIuOWM1LjIsMCw5LjU3LDMuOTMsMTAuODYsOS4yN2MwLjc2LTAuMjIsMS41NS0wLjMzLDIuMzQtMC4zM0M3MC42LDIyLjcsNzUsMjcuNTgsNzUsMzMuNjV6Ii8+JiN4YTsJCTwvZz4mI3hhOwkJPGcgaWQ9InNoYXBlNDgwOC02IiB0cmFuc2Zvcm09InRyYW5zbGF0ZSgxNS4wMTUpIj4mI3hhOwkJCTx0aXRsZSBpZD0idGl0bGU0Mzk3NiI+cGF0aDMyNDg8L3RpdGxlPiYjeGE7CQkJPHBhdGggaWQ9InBhdGg0Mzk3OCIgaW5rc2NhcGU6Y29ubmVjdG9yLWN1cnZhdHVyZT0iMCIgc3R5bGU9ImZpbGw6IzU1RDJGNjsiIGQ9Ik01OS45OCwzMy42NWMwLDYuMDUtNC40LDEwLjk1LTkuODMsMTAuOTVIMzUuMzggICAgIEwwLDkuMjNDMyw0LjU1LDcuOTIsMS41LDEzLjUsMS41YzguMTQsMCwxNC44OSw2LjU1LDE2LjI3LDE1LjE3YzEuOTQtMS44NSw0LjUyLTIuODgsNy4yLTIuOWM1LjIxLDAsOS41NywzLjkzLDEwLjg2LDkuMjcgICAgIGMwLjc2LTAuMjIsMS41NS0wLjMzLDIuMzQtMC4zM0M1NS41OCwyMi43LDU5Ljk4LDI3LjU4LDU5Ljk4LDMzLjY1eiIvPiYjeGE7CQk8L2c+JiN4YTsJPC9nPiYjeGE7PC9nPiYjeGE7PC9zdmc+;" vertex="1" parent="1">
          <mxGeometry x="382" y="80" width="280" height="140" as="geometry" />
        </mxCell>
        <mxCell id="mdQV8XXlaroIpFqQpkAV-3" value="" style="rounded=1;whiteSpace=wrap;html=1;" vertex="1" parent="1">
          <mxGeometry x="280" y="361" width="333.13" height="89" as="geometry" />
        </mxCell>
        <mxCell id="mdQV8XXlaroIpFqQpkAV-5" value="hls" style="shape=image;verticalLabelPosition=bottom;labelBackgroundColor=#ffffff;verticalAlign=top;aspect=fixed;imageAspect=0;image=data:image/svg+xml,PHN2ZyB4bWxuczpjYz0iaHR0cDovL2NyZWF0aXZlY29tbW9ucy5vcmcvbnMjIiB4bWxuczpkYz0iaHR0cDovL3B1cmwub3JnL2RjL2VsZW1lbnRzLzEuMS8iIHhtbG5zOmlua3NjYXBlPSJodHRwOi8vd3d3Lmlua3NjYXBlLm9yZy9uYW1lc3BhY2VzL2lua3NjYXBlIiB4bWxuczpyZGY9Imh0dHA6Ly93d3cudzMub3JnLzE5OTkvMDIvMjItcmRmLXN5bnRheC1ucyMiIHhtbG5zOnNvZGlwb2RpPSJodHRwOi8vc29kaXBvZGkuc291cmNlZm9yZ2UubmV0L0RURC9zb2RpcG9kaS0wLmR0ZCIgeG1sbnM6c3ZnPSJodHRwOi8vd3d3LnczLm9yZy8yMDAwL3N2ZyIgeG1sbnM9Imh0dHA6Ly93d3cudzMub3JnLzIwMDAvc3ZnIiB4bWxuczp4bGluaz0iaHR0cDovL3d3dy53My5vcmcvMTk5OS94bGluayIgdmVyc2lvbj0iMS4xIiBpZD0ic3ZnMjM0MzciIGlua3NjYXBlOnZlcnNpb249IjAuOTIuMyAoMjQwNTU0NiwgMjAxOC0wMy0xMSkiIHNvZGlwb2RpOmRvY25hbWU9Im1hYy5zdmciIHg9IjBweCIgeT0iMHB4IiB2aWV3Qm94PSIwIDAgNjYuMTEgMzUuNTQiIHN0eWxlPSJlbmFibGUtYmFja2dyb3VuZDpuZXcgMCAwIDY2LjExIDM1LjU0OyIgeG1sOnNwYWNlPSJwcmVzZXJ2ZSI+JiN4YTs8c29kaXBvZGk6bmFtZWR2aWV3IGJvcmRlcmNvbG9yPSIjNjY2NjY2IiBib3JkZXJvcGFjaXR5PSIxIiBmaXQtbWFyZ2luLWJvdHRvbT0iMCIgZml0LW1hcmdpbi1sZWZ0PSIwIiBmaXQtbWFyZ2luLXJpZ2h0PSIwIiBmaXQtbWFyZ2luLXRvcD0iMCIgZ3JpZHRvbGVyYW5jZT0iMTAiIGd1aWRldG9sZXJhbmNlPSIxMCIgaWQ9Im5hbWVkdmlldzIzNDM5IiBpbmtzY2FwZTpjdXJyZW50LWxheWVyPSJzdmcyMzQzNyIgaW5rc2NhcGU6Y3g9IjQ0LjA3NjA0NyIgaW5rc2NhcGU6Y3k9IjIzLjY5NTcyMiIgaW5rc2NhcGU6cGFnZW9wYWNpdHk9IjAiIGlua3NjYXBlOnBhZ2VzaGFkb3c9IjIiIGlua3NjYXBlOndpbmRvdy1oZWlnaHQ9IjEwMTciIGlua3NjYXBlOndpbmRvdy1tYXhpbWl6ZWQ9IjEiIGlua3NjYXBlOndpbmRvdy13aWR0aD0iMTkyMCIgaW5rc2NhcGU6d2luZG93LXg9Ii04IiBpbmtzY2FwZTp3aW5kb3cteT0iLTgiIGlua3NjYXBlOnpvb209IjE4LjI5ODE0NCIgb2JqZWN0dG9sZXJhbmNlPSIxMCIgcGFnZWNvbG9yPSIjZmZmZmZmIiBzaG93Z3JpZD0iZmFsc2UiPiYjeGE7CTwvc29kaXBvZGk6bmFtZWR2aWV3PiYjeGE7PGcgaWQ9ImcyMzQzNSI+JiN4YTsJPHRpdGxlIGlkPSJ0aXRsZTIzNDA1Ij5QYWdlLTE8L3RpdGxlPiYjeGE7CTxnIGlkPSJncm91cDM4MTUtMSI+JiN4YTsJCTx0aXRsZSBpZD0idGl0bGUyMzQwNyI+TWFjPC90aXRsZT4mI3hhOwkJPGcgaWQ9InNoYXBlMzgxNi0yIj4mI3hhOwkJCTx0aXRsZSBpZD0idGl0bGUyMzQwOSI+U2hlZXQuMzgxNjwvdGl0bGU+JiN4YTsJCQk8cGF0aCBpZD0icGF0aDIzNDExIiBpbmtzY2FwZTpjb25uZWN0b3ItY3VydmF0dXJlPSIwIiBzdHlsZT0iZmlsbDojM0Y1NzY1OyIgZD0iTTU2LjA1LDBDMTAuMSwwLDEwLjEsMCwxMC4xLDAgICAgIEM5LjIyLDAsOC4zNCwwLjY5LDguMzQsMS41N2MwLDI4LjQ5LDAsMjguNDksMCwyOC40OWMwLDAuODgsMC44OCwxLjUzLDEuNzYsMS41M2M0NS45NSwwLDQ1Ljk1LDAsNDUuOTUsMCAgICAgYzEuMTEsMCwxLjc2LTAuNjUsMS43Ni0xLjUzYzAtMjguNDksMC0yOC40OSwwLTI4LjQ5QzU3LjgxLDAuNjksNTcuMTYsMCw1Ni4wNSwweiBNNTUuNjMsMjkuODdjLTQ1LjExLDAtNDUuMTEsMC00NS4xMSwwICAgICBjMC0yOC4xMSwwLTI4LjExLDAtMjguMTFjNDUuMTEsMCw0NS4xMSwwLDQ1LjExLDBDNTUuNjMsMjkuODcsNTUuNjMsMjkuODcsNTUuNjMsMjkuODd6IE0zNy42OSwzMi45M2MwLDAuMTksMCwwLjE5LDAsMC4xOSAgICAgYzAsMC40Ni0wLjQ2LDAuNjktMC42OSwwLjY5Yy03Ljg4LDAtNy44OCwwLTcuODgsMGMtMC4yLDAtMC40Mi0wLjIzLTAuNDItMC42OWMwLTAuMTksMC0wLjE5LDAtMC4xOWMtMjguNywwLTI4LjcsMC0yOC43LDAgICAgIGMwLDEuNzYsMCwxLjc2LDAsMS43NnMxLjU3LDAuODUsMi4yMiwwLjg1bDAsMGM2MS43MSwwLDYxLjcxLDAsNjEuNzEsMGwwLDBjMC42NSwwLDIuMTgtMC44NSwyLjE4LTAuODVjMC0xLjc2LDAtMS43NiwwLTEuNzYgICAgIEMzNy42OSwzMi45MywzNy42OSwzMi45MywzNy42OSwzMi45M0wzNy42OSwzMi45M3oiLz4mI3hhOwkJPC9nPiYjeGE7CQk8ZyBpZD0ic2hhcGUzODE3LTQiIHRyYW5zZm9ybT0idHJhbnNsYXRlKDEwLjQwNjgsLTUuNTE0MjcpIj4mI3hhOwkJCTx0aXRsZSBpZD0idGl0bGUyMzQxNCI+U2hlZXQuMzgxNzwvdGl0bGU+JiN4YTsJCQk8cGF0aCBpZD0icGF0aDIzNDE2IiBpbmtzY2FwZTpjb25uZWN0b3ItY3VydmF0dXJlPSIwIiBzdHlsZT0iZmlsbDojRkZGRkZGOyIgZD0iTTQ1LjMsMzUuNTRIMFY3LjM1aDQ1LjNWMzUuNTR6Ii8+JiN4YTsJCTwvZz4mI3hhOwkJPGcgaWQ9InNoYXBlMzgxOC02IiB0cmFuc2Zvcm09InRyYW5zbGF0ZSg5LjQ0MjE5LC01LjIwNzkyKSI+JiN4YTsJCQk8dGl0bGUgaWQ9InRpdGxlMjM0MTkiPlNoZWV0LjM4MTg8L3RpdGxlPiYjeGE7CQkJPHBhdGggaWQ9InBhdGgyMzQyMSIgaW5rc2NhcGU6Y29ubmVjdG9yLWN1cnZhdHVyZT0iMCIgc3R5bGU9ImZpbGw6bm9uZTsiIGQ9Ik00Ni41NywzNS41NEgwVjUuODVoNDYuNTdWMzUuNTRMNDYuNTcsMzUuNTQgICAgIEw0Ni41NywzNS41NCIvPiYjeGE7CQk8L2c+JiN4YTsJCTxnIGlkPSJzaGFwZTM4MTktOSIgdHJhbnNmb3JtPSJ0cmFuc2xhdGUoMjcuMDMzNywtMTIuMjUzOSkiPiYjeGE7CQkJPHRpdGxlIGlkPSJ0aXRsZTIzNDI0Ij5TaGVldC4zODE5PC90aXRsZT4mI3hhOwkJCTxwYXRoIGlkPSJwYXRoMjM0MjYiIGlua3NjYXBlOmNvbm5lY3Rvci1jdXJ2YXR1cmU9IjAiIHN0eWxlPSJmaWxsOiMzRjU3NjU7IiBkPSJNMTAsMjcuOTljMC0yLjAzLDEuNzItMi45MSwxLjcyLTMuMTQgICAgIGMtMC44NC0xLjM0LTIuMzMtMS41Ny0yLjc5LTEuNTdjLTEuMDcsMC0yLjE0LDAuOTItMi43NSwwLjkyYy0wLjY1LDAtMS41My0wLjkyLTIuMzgtMC45MmMtMS4zLDAuMjMtMi41NiwwLjkyLTMuMjEsMi4wMyAgICAgYy0xLjMsMi40NS0wLjIzLDYuMjQsMS4wNyw4LjI0YzAuNjUsMC44OCwxLjMsMS45OSwyLjM3LDEuOTljMC44NSwwLDEuMjctMC42NSwyLjM0LTAuNjVzMS40OSwwLjY1LDIuMzcsMC42NSAgICAgYzEuMDcsMCwxLjcyLTEuMTEsMi4zMy0xLjk5YzAuNjUtMS4xMiwxLjA3LTIuMjMsMS4wNy0yLjIzUzEwLDMwLjQ0LDEwLDI3Ljk5eiIvPiYjeGE7CQk8L2c+JiN4YTsJCTxnIGlkPSJzaGFwZTM4MjAtMTEiIHRyYW5zZm9ybT0idHJhbnNsYXRlKDMzLjA1NywtMjQuNjY3MSkiPiYjeGE7CQkJPHRpdGxlIGlkPSJ0aXRsZTIzNDI5Ij5TaGVldC4zODIwPC90aXRsZT4mI3hhOwkJCTxwYXRoIGlkPSJwYXRoMjM0MzEiIGlua3NjYXBlOmNvbm5lY3Rvci1jdXJ2YXR1cmU9IjAiIHN0eWxlPSJmaWxsOiMzRjU3NjU7IiBkPSJNMi4yNiwzNC40M2MwLjQyLTAuNjUsMC44LTEuNTMsMC42MS0yLjQxICAgICBjLTAuNjEsMC0xLjQyLDAuNDYtMi4wMywxLjExQzAuNDIsMzMuNzgsMCwzNC42MiwwLDM1LjVDMC44NCwzNS43LDEuNjUsMzUuMDgsMi4yNiwzNC40M3oiLz4mI3hhOwkJPC9nPiYjeGE7CTwvZz4mI3hhOzwvZz4mI3hhOzwvc3ZnPg==;" vertex="1" parent="1">
          <mxGeometry x="302.07" y="377" width="66" height="36" as="geometry" />
        </mxCell>
        <mxCell id="mdQV8XXlaroIpFqQpkAV-6" value="hls" style="shape=image;verticalLabelPosition=bottom;labelBackgroundColor=#ffffff;verticalAlign=top;aspect=fixed;imageAspect=0;image=data:image/svg+xml,PHN2ZyB4bWxuczpjYz0iaHR0cDovL2NyZWF0aXZlY29tbW9ucy5vcmcvbnMjIiB4bWxuczpkYz0iaHR0cDovL3B1cmwub3JnL2RjL2VsZW1lbnRzLzEuMS8iIHhtbG5zOmlua3NjYXBlPSJodHRwOi8vd3d3Lmlua3NjYXBlLm9yZy9uYW1lc3BhY2VzL2lua3NjYXBlIiB4bWxuczpyZGY9Imh0dHA6Ly93d3cudzMub3JnLzE5OTkvMDIvMjItcmRmLXN5bnRheC1ucyMiIHhtbG5zOnNvZGlwb2RpPSJodHRwOi8vc29kaXBvZGkuc291cmNlZm9yZ2UubmV0L0RURC9zb2RpcG9kaS0wLmR0ZCIgeG1sbnM6c3ZnPSJodHRwOi8vd3d3LnczLm9yZy8yMDAwL3N2ZyIgeG1sbnM9Imh0dHA6Ly93d3cudzMub3JnLzIwMDAvc3ZnIiB4bWxuczp4bGluaz0iaHR0cDovL3d3dy53My5vcmcvMTk5OS94bGluayIgdmVyc2lvbj0iMS4xIiBpZD0ic3ZnMjExNDciIGlua3NjYXBlOnZlcnNpb249IjAuOTIuMyAoMjQwNTU0NiwgMjAxOC0wMy0xMSkiIHNvZGlwb2RpOmRvY25hbWU9ImxhcHRvcF93aW5kb3dzXzIuc3ZnIiB4PSIwcHgiIHk9IjBweCIgdmlld0JveD0iMCAwIDY2LjExIDM1LjU0IiBzdHlsZT0iZW5hYmxlLWJhY2tncm91bmQ6bmV3IDAgMCA2Ni4xMSAzNS41NDsiIHhtbDpzcGFjZT0icHJlc2VydmUiPiYjeGE7PHNvZGlwb2RpOm5hbWVkdmlldyBib3JkZXJjb2xvcj0iIzY2NjY2NiIgYm9yZGVyb3BhY2l0eT0iMSIgZml0LW1hcmdpbi1ib3R0b209IjAiIGZpdC1tYXJnaW4tbGVmdD0iMCIgZml0LW1hcmdpbi1yaWdodD0iMCIgZml0LW1hcmdpbi10b3A9IjAiIGdyaWR0b2xlcmFuY2U9IjEwIiBndWlkZXRvbGVyYW5jZT0iMTAiIGlkPSJuYW1lZHZpZXcyMTE0OSIgaW5rc2NhcGU6Y3VycmVudC1sYXllcj0ic3ZnMjExNDciIGlua3NjYXBlOmN4PSI0NC4wNzYwNDciIGlua3NjYXBlOmN5PSIyMy42OTU3MjIiIGlua3NjYXBlOnBhZ2VvcGFjaXR5PSIwIiBpbmtzY2FwZTpwYWdlc2hhZG93PSIyIiBpbmtzY2FwZTp3aW5kb3ctaGVpZ2h0PSIxMDE3IiBpbmtzY2FwZTp3aW5kb3ctbWF4aW1pemVkPSIxIiBpbmtzY2FwZTp3aW5kb3ctd2lkdGg9IjE5MjAiIGlua3NjYXBlOndpbmRvdy14PSItOCIgaW5rc2NhcGU6d2luZG93LXk9Ii04IiBpbmtzY2FwZTp6b29tPSIxOC4yOTgxNDQiIG9iamVjdHRvbGVyYW5jZT0iMTAiIHBhZ2Vjb2xvcj0iI2ZmZmZmZiIgc2hvd2dyaWQ9ImZhbHNlIj4mI3hhOwk8L3NvZGlwb2RpOm5hbWVkdmlldz4mI3hhOzxnIGlkPSJnMjExNDUiPiYjeGE7CTx0aXRsZSBpZD0idGl0bGUyMTEwNSI+UGFnZS0xPC90aXRsZT4mI3hhOwk8ZyBpZD0iZ3JvdXAzNzg0LTEiPiYjeGE7CQk8dGl0bGUgaWQ9InRpdGxlMjExMDciPkxhcHRvcCAoV2luZG93cykgIzI8L3RpdGxlPiYjeGE7CQk8ZyBpZD0ic2hhcGUzNzg1LTIiIHRyYW5zZm9ybT0idHJhbnNsYXRlKDkuNDM1NDMsLTQuODMxMTYpIj4mI3hhOwkJCTx0aXRsZSBpZD0idGl0bGUyMTEwOSI+U2hlZXQuMzc4NTwvdGl0bGU+JiN4YTsJCQk8cGF0aCBpZD0icGF0aDIxMTExIiBpbmtzY2FwZTpjb25uZWN0b3ItY3VydmF0dXJlPSIwIiBzdHlsZT0iZmlsbDojRkZGRkZGOyIgZD0iTTQ2Ljk0LDM1LjU0SDBWNi4wNmg0Ni45NFYzNS41NHoiLz4mI3hhOwkJPC9nPiYjeGE7CQk8ZyBpZD0ic2hhcGUzNzg2LTQiPiYjeGE7CQkJPHRpdGxlIGlkPSJ0aXRsZTIxMTE0Ij5TaGVldC4zNzg2PC90aXRsZT4mI3hhOwkJCTxwYXRoIGlkPSJwYXRoMjExMTYiIGlua3NjYXBlOmNvbm5lY3Rvci1jdXJ2YXR1cmU9IjAiIHN0eWxlPSJmaWxsOiMzRjU3NjU7IiBkPSJNNTYuMDUsMEMxMC4xLDAsMTAuMSwwLDEwLjEsMCAgICAgQzkuMjIsMCw4LjM0LDAuNjksOC4zNCwxLjc2YzAsMjguMywwLDI4LjMsMCwyOC4zYzAsMS4xMSwwLjg4LDEuNzYsMS43NiwxLjc2YzQ1Ljk1LDAsNDUuOTUsMCw0NS45NSwwICAgICBjMS4xMSwwLDEuNzYtMC42NSwxLjc2LTEuNzZjMC0yOC4zLDAtMjguMywwLTI4LjNDNTcuODEsMC42OSw1Ny4xNiwwLDU2LjA1LDB6IE01NS42MywyOS44N2MtNDUuMTEsMC00NS4xMSwwLTQ1LjExLDAgICAgIGMwLTI4LjExLDAtMjguMTEsMC0yOC4xMWM0NS4xMSwwLDQ1LjExLDAsNDUuMTEsMEM1NS42MywyOS44Nyw1NS42MywyOS44Nyw1NS42MywyOS44N3ogTTM3LjY5LDMyLjkzYzAsMC40MiwwLDAuNDIsMCwwLjQyICAgICBjMCwwLjIzLTAuNDYsMC40Ni0wLjY5LDAuNDZjLTcuODgsMC03Ljg4LDAtNy44OCwwYy0wLjIsMC0wLjQyLTAuMjMtMC40Mi0wLjQ2YzAtMC40MiwwLTAuNDIsMC0wLjQyYy0yOC43LDAtMjguNywwLTI4LjcsMCAgICAgYzAsMS43NiwwLDEuNzYsMCwxLjc2czEuNTcsMC44NSwyLjIyLDAuODVsMCwwYzYxLjcxLDAsNjEuNzEsMCw2MS43MSwwbDAsMGMwLjY1LDAsMi4xOC0wLjg1LDIuMTgtMC44NWMwLTEuNzYsMC0xLjc2LDAtMS43NiAgICAgQzM3LjY5LDMyLjkzLDM3LjY5LDMyLjkzLDM3LjY5LDMyLjkzTDM3LjY5LDMyLjkzeiIvPiYjeGE7CQk8L2c+JiN4YTsJCTxnIGlkPSJzaGFwZTM3ODctNiIgdHJhbnNmb3JtPSJ0cmFuc2xhdGUoMTAuNzEyOSwtNS44MjA2MikiPiYjeGE7CQkJPHRpdGxlIGlkPSJ0aXRsZTIxMTE5Ij5TaGVldC4zNzg3PC90aXRsZT4mI3hhOwkJCTxwYXRoIGlkPSJwYXRoMjExMjEiIGlua3NjYXBlOmNvbm5lY3Rvci1jdXJ2YXR1cmU9IjAiIHN0eWxlPSJmaWxsOm5vbmU7IiBkPSJNNDUuOTcsMzUuNTRIMFY3LjM1aDQ1Ljk3VjM1LjU0TDQ1Ljk3LDM1LjU0ICAgICBMNDUuOTcsMzUuNTQiLz4mI3hhOwkJPC9nPiYjeGE7CQk8ZyBpZD0ic2hhcGUzNzg4LTkiIHRyYW5zZm9ybT0idHJhbnNsYXRlKDMzLjA1NywtMTEuNjQxMikiPiYjeGE7CQkJPHRpdGxlIGlkPSJ0aXRsZTIxMTI0Ij5TaGVldC4zNzg4PC90aXRsZT4mI3hhOwkJCTxwYXRoIGlkPSJwYXRoMjExMjYiIGlua3NjYXBlOmNvbm5lY3Rvci1jdXJ2YXR1cmU9IjAiIHN0eWxlPSJmaWxsOiMzRjU3NjU7IiBkPSJNMCwyOC4xOHY3LjM2aDcuMzV2LTcuMzZIMHoiLz4mI3hhOwkJPC9nPiYjeGE7CQk8ZyBpZD0ic2hhcGUzNzg5LTExIiB0cmFuc2Zvcm09InRyYW5zbGF0ZSgyNC40ODY3LC0xMS42NDEyKSI+JiN4YTsJCQk8dGl0bGUgaWQ9InRpdGxlMjExMjkiPlNoZWV0LjM3ODk8L3RpdGxlPiYjeGE7CQkJPHBhdGggaWQ9InBhdGgyMTEzMSIgaW5rc2NhcGU6Y29ubmVjdG9yLWN1cnZhdHVyZT0iMCIgc3R5bGU9ImZpbGw6IzNGNTc2NTsiIGQ9Ik0wLDI4LjE4djcuMzZoNy4zNXYtNy4zNkgweiIvPiYjeGE7CQk8L2c+JiN4YTsJCTxnIGlkPSJzaGFwZTM3OTAtMTMiIHRyYW5zZm9ybT0idHJhbnNsYXRlKDMzLjA1NywtMjAuMjE5KSI+JiN4YTsJCQk8dGl0bGUgaWQ9InRpdGxlMjExMzQiPlNoZWV0LjM3OTA8L3RpdGxlPiYjeGE7CQkJPHBhdGggaWQ9InBhdGgyMTEzNiIgaW5rc2NhcGU6Y29ubmVjdG9yLWN1cnZhdHVyZT0iMCIgc3R5bGU9ImZpbGw6IzNGNTc2NTsiIGQ9Ik0wLDI4LjE4djcuMzZoNy4zNXYtNy4zNkgweiIvPiYjeGE7CQk8L2c+JiN4YTsJCTxnIGlkPSJzaGFwZTM3OTEtMTUiIHRyYW5zZm9ybT0idHJhbnNsYXRlKDI0LjQ4NjcsLTIwLjIxOSkiPiYjeGE7CQkJPHRpdGxlIGlkPSJ0aXRsZTIxMTM5Ij5TaGVldC4zNzkxPC90aXRsZT4mI3hhOwkJCTxwYXRoIGlkPSJwYXRoMjExNDEiIGlua3NjYXBlOmNvbm5lY3Rvci1jdXJ2YXR1cmU9IjAiIHN0eWxlPSJmaWxsOiMzRjU3NjU7IiBkPSJNMCwyOC4xOHY3LjM2aDcuMzV2LTcuMzZIMHoiLz4mI3hhOwkJPC9nPiYjeGE7CTwvZz4mI3hhOzwvZz4mI3hhOzwvc3ZnPg==;" vertex="1" parent="1">
          <mxGeometry x="384.07" y="377" width="66" height="36" as="geometry" />
        </mxCell>
        <mxCell id="mdQV8XXlaroIpFqQpkAV-7" value="hls" style="shape=image;verticalLabelPosition=bottom;labelBackgroundColor=#ffffff;verticalAlign=top;aspect=fixed;imageAspect=0;image=data:image/svg+xml,PHN2ZyB4bWxuczpjYz0iaHR0cDovL2NyZWF0aXZlY29tbW9ucy5vcmcvbnMjIiB4bWxuczpkYz0iaHR0cDovL3B1cmwub3JnL2RjL2VsZW1lbnRzLzEuMS8iIHhtbG5zOmlua3NjYXBlPSJodHRwOi8vd3d3Lmlua3NjYXBlLm9yZy9uYW1lc3BhY2VzL2lua3NjYXBlIiB4bWxuczpyZGY9Imh0dHA6Ly93d3cudzMub3JnLzE5OTkvMDIvMjItcmRmLXN5bnRheC1ucyMiIHhtbG5zOnNvZGlwb2RpPSJodHRwOi8vc29kaXBvZGkuc291cmNlZm9yZ2UubmV0L0RURC9zb2RpcG9kaS0wLmR0ZCIgeG1sbnM6c3ZnPSJodHRwOi8vd3d3LnczLm9yZy8yMDAwL3N2ZyIgeG1sbnM9Imh0dHA6Ly93d3cudzMub3JnLzIwMDAvc3ZnIiB4bWxuczp4bGluaz0iaHR0cDovL3d3dy53My5vcmcvMTk5OS94bGluayIgdmVyc2lvbj0iMS4xIiBpZD0ic3ZnMjY3OCIgaW5rc2NhcGU6dmVyc2lvbj0iMC45Mi4zICgyNDA1NTQ2LCAyMDE4LTAzLTExKSIgc29kaXBvZGk6ZG9jbmFtZT0iZGV2aWNlX2FuZHJvaWRfMS5zdmciIHg9IjBweCIgeT0iMHB4IiB2aWV3Qm94PSIwIDAgMzUuMTggNjcuODUiIHN0eWxlPSJlbmFibGUtYmFja2dyb3VuZDpuZXcgMCAwIDM1LjE4IDY3Ljg1OyIgeG1sOnNwYWNlPSJwcmVzZXJ2ZSI+JiN4YTs8c29kaXBvZGk6bmFtZWR2aWV3IGJvcmRlcmNvbG9yPSIjNjY2NjY2IiBib3JkZXJvcGFjaXR5PSIxIiBmaXQtbWFyZ2luLWJvdHRvbT0iMCIgZml0LW1hcmdpbi1sZWZ0PSIwIiBmaXQtbWFyZ2luLXJpZ2h0PSIwIiBmaXQtbWFyZ2luLXRvcD0iMCIgZ3JpZHRvbGVyYW5jZT0iMTAiIGd1aWRldG9sZXJhbmNlPSIxMCIgaWQ9Im5hbWVkdmlldzI2ODAiIGlua3NjYXBlOmN1cnJlbnQtbGF5ZXI9InN2ZzI2NzgiIGlua3NjYXBlOmN4PSIyMy40NTA4OCIgaW5rc2NhcGU6Y3k9IjQ1LjI0MDkyOCIgaW5rc2NhcGU6cGFnZW9wYWNpdHk9IjAiIGlua3NjYXBlOnBhZ2VzaGFkb3c9IjIiIGlua3NjYXBlOndpbmRvdy1oZWlnaHQ9IjEwMTciIGlua3NjYXBlOndpbmRvdy1tYXhpbWl6ZWQ9IjEiIGlua3NjYXBlOndpbmRvdy13aWR0aD0iMTkyMCIgaW5rc2NhcGU6d2luZG93LXg9Ii04IiBpbmtzY2FwZTp3aW5kb3cteT0iLTgiIGlua3NjYXBlOnpvb209IjkuNTg1MzcwNiIgb2JqZWN0dG9sZXJhbmNlPSIxMCIgcGFnZWNvbG9yPSIjZmZmZmZmIiBzaG93Z3JpZD0iZmFsc2UiPiYjeGE7CTwvc29kaXBvZGk6bmFtZWR2aWV3PiYjeGE7PGcgaWQ9ImcyNjc2Ij4mI3hhOwk8dGl0bGUgaWQ9InRpdGxlMjYzNiI+UGFnZS0xPC90aXRsZT4mI3hhOwk8ZyBpZD0iZ3JvdXAzNDkxLTEiPiYjeGE7CQk8dGl0bGUgaWQ9InRpdGxlMjYzOCI+RGV2aWNlOiBBbmRyb2lkICMxPC90aXRsZT4mI3hhOwkJPGcgaWQ9InNoYXBlMzQ5Mi0yIj4mI3hhOwkJCTx0aXRsZSBpZD0idGl0bGUyNjQwIj5TaGVldC4zNDkyPC90aXRsZT4mI3hhOwkJCTxwYXRoIGlkPSJwYXRoMjY0MiIgaW5rc2NhcGU6Y29ubmVjdG9yLWN1cnZhdHVyZT0iMCIgc3R5bGU9ImZpbGw6IzNGNTc2NTsiIGQ9Ik0zNC42OCw4LjdjLTAuMDYsMC0wLjA2LDAtMC4wNiwwICAgICBjMC00Ljc2LDAtNC43NiwwLTQuNzZjMC0xLjgzLTEuNDgtMi44OC0zLjMyLTIuODhjMCwwLTMuMjItMS4wNi0xMy4yNi0xLjA2QzcuOTQsMCwzLjg5LDEuMDYsMy44OSwxLjA2ICAgICBjLTEuODMsMC0zLjMzLDEuMDUtMy4zMywyLjg4YzAsOS41NywwLDkuNTcsMCw5LjU3QzAuMjMsMTMuOCwwLDE0LjE4LDAsMTQuNjhjMCw4LjI1LDAsOC4yNSwwLDguMjVjMCwwLjUsMC4yMywwLjg5LDAuNTYsMS4xNyAgICAgYzAsNDAuNDEsMCw0MC40MSwwLDQwLjQxYzAsMS44MywxLjUsMi43MSwzLjMzLDIuNzFjMCwwLDUuMSwwLjcyLDEzLjg4LDAuNjJjOC44MS0wLjExLDEzLjUzLTAuNjIsMTMuNTMtMC42MiAgICAgYzEuODQsMCwzLjMyLTAuODgsMy4zMi0yLjcxYzAtNTEuMzMsMC01MS4zMywwLTUxLjMzczAsMCwwLjA2LDBjMC4yOSwwLDAuNS0wLjIxLDAuNS0wLjQ5YzAtMy40OSwwLTMuNDksMC0zLjQ5ICAgICBDMzUuMTgsOC45MywzNC45Nyw4LjcsMzQuNjgsOC43eiIvPiYjeGE7CQk8L2c+JiN4YTsJCTxnIGlkPSJzaGFwZTM0OTMtNCIgdHJhbnNmb3JtPSJ0cmFuc2xhdGUoMy4wMDEzOSwtNy44MDM4MSkiPiYjeGE7CQkJPHRpdGxlIGlkPSJ0aXRsZTI2NDUiPlNoZWV0LjM0OTM8L3RpdGxlPiYjeGE7CQkJPHBhdGggaWQ9InBhdGgyNjQ3IiBpbmtzY2FwZTpjb25uZWN0b3ItY3VydmF0dXJlPSIwIiBzdHlsZT0iZmlsbDojOEQ5RkIwOyIgZD0iTTAsMTMuNTZ2NTQuMjhoMjkuMTdWMTMuNTZIMHoiLz4mI3hhOwkJPC9nPiYjeGE7CQk8ZyBpZD0ic2hhcGUzNDk0LTYiIHRyYW5zZm9ybT0idHJhbnNsYXRlKDE2LjY4NzcsLTYzLjQwNDEpIj4mI3hhOwkJCTx0aXRsZSBpZD0idGl0bGUyNjUwIj5TaGVldC4zNDk0PC90aXRsZT4mI3hhOwkJCTxwYXRoIGlkPSJwYXRoMjY1MiIgaW5rc2NhcGU6Y29ubmVjdG9yLWN1cnZhdHVyZT0iMCIgc3R5bGU9ImZpbGw6IzhFOUZCMDsiIGQ9Ik0wLDY2Ljk0YzAtMC41LDAuMzktMC45LDAuODQtMC45ICAgICBjMC40NywwLDAuODQsMC40LDAuODQsMC45YzAsMC41MS0wLjM3LDAuOS0wLjg0LDAuOUMwLjM5LDY3Ljg0LDAsNjcuNDUsMCw2Ni45NHoiLz4mI3hhOwkJPC9nPiYjeGE7CQk8ZyBpZD0ic2hhcGUzNDk1LTgiIHRyYW5zZm9ybT0idHJhbnNsYXRlKDUuNjQyNjEsLTYzLjg4MzQpIj4mI3hhOwkJCTx0aXRsZSBpZD0idGl0bGUyNjU1Ij5TaGVldC4zNDk1PC90aXRsZT4mI3hhOwkJCTxwYXRoIGlkPSJwYXRoMjY1NyIgaW5rc2NhcGU6Y29ubmVjdG9yLWN1cnZhdHVyZT0iMCIgc3R5bGU9ImZpbGw6IzhFOUZCMDsiIGQ9Ik0wLDY3LjQyQzAsNjcuMTksMC4yLDY3LDAuNDIsNjcgICAgIGMwLjI0LDAsMC40MiwwLjE5LDAuNDIsMC40MmMwLDAuMjQtMC4xOCwwLjQyLTAuNDIsMC40MkMwLjIsNjcuODQsMCw2Ny42NiwwLDY3LjQyeiIvPiYjeGE7CQk8L2c+JiN4YTsJCTxnIGlkPSJzaGFwZTM0OTYtMTAiIHRyYW5zZm9ybT0idHJhbnNsYXRlKDEwLjIwNDcsLTMwLjgxMDgpIj4mI3hhOwkJCTx0aXRsZSBpZD0idGl0bGUyNjYwIj5TaGVldC4zNDk2PC90aXRsZT4mI3hhOwkJCTxwYXRoIGlkPSJwYXRoMjY2MiIgaW5rc2NhcGU6Y29ubmVjdG9yLWN1cnZhdHVyZT0iMCIgc3R5bGU9ImZpbGw6I0ZGRkZGRjsiIGQ9Ik0xMy43Miw2MS40OWMtMC41NywwLTEuMDUsMC40OS0xLjA1LDEuMDkgICAgIGMwLDQuMTgsMCw0LjE4LDAsNC4xOGMwLDAuNiwwLjQ4LDEuMDgsMS4wNSwxLjA4YzAuNTgsMCwxLjA1LTAuNDgsMS4wNS0xLjA4YzAtNC4xOCwwLTQuMTgsMC00LjE4ICAgICBDMTQuNzcsNjEuOTgsMTQuMyw2MS40OSwxMy43Miw2MS40OXogTTEuMDcsNjEuNDlDMC40OCw2MS40OSwwLDYxLjk4LDAsNjIuNThjMCw0LjE4LDAsNC4xOCwwLDQuMThjMCwwLjYsMC40OCwxLjA4LDEuMDcsMS4wOCAgICAgYzAuNTcsMCwxLjA1LTAuNDgsMS4wNS0xLjA4YzAtNC4xOCwwLTQuMTgsMC00LjE4QzIuMTIsNjEuOTgsMS42NCw2MS40OSwxLjA3LDYxLjQ5eiIvPiYjeGE7CQk8L2c+JiN4YTsJCTxnIGlkPSJzaGFwZTM0OTctMTIiIHRyYW5zZm9ybT0idHJhbnNsYXRlKDEyLjk2NiwtMjUuMjk4NykiPiYjeGE7CQkJPHRpdGxlIGlkPSJ0aXRsZTI2NjUiPlNoZWV0LjM0OTc8L3RpdGxlPiYjeGE7CQkJPHBhdGggaWQ9InBhdGgyNjY3IiBpbmtzY2FwZTpjb25uZWN0b3ItY3VydmF0dXJlPSIwIiBzdHlsZT0iZmlsbDojRkZGRkZGOyIgZD0iTTAsNTYuMDljMCw3LjU4LDAsNy41OCwwLDcuNTggICAgIGMwLDAuNDUsMC4zNiwwLjgxLDAuODEsMC44MWMwLjkzLDAsMC45MywwLDAuOTMsMGMwLDIuMjksMCwyLjI5LDAsMi4yOWMwLDAuNiwwLjQ3LDEuMDcsMS4wNCwxLjA3czEuMDUtMC40NywxLjA1LTEuMDcgICAgIGMwLTIuMjksMC0yLjI5LDAtMi4yOWMxLjYsMCwxLjYsMCwxLjYsMGMwLDIuMjksMCwyLjI5LDAsMi4yOWMwLDAuNiwwLjQ4LDEuMDcsMS4wNSwxLjA3czEuMDQtMC40NywxLjA0LTEuMDcgICAgIGMwLTIuMjksMC0yLjI5LDAtMi4yOWMwLjkzLDAsMC45MywwLDAuOTMsMGMwLjQ1LDAsMC43OS0wLjM2LDAuNzktMC44MWMwLTcuNTgsMC03LjU4LDAtNy41OEwwLDU2LjA5eiIvPiYjeGE7CQk8L2c+JiN4YTsJCTxnIGlkPSJzaGFwZTM0OTgtMTQiIHRyYW5zZm9ybT0idHJhbnNsYXRlKDEyLjk2NiwtMzcuNzYwOSkiPiYjeGE7CQkJPHRpdGxlIGlkPSJ0aXRsZTI2NzAiPlNoZWV0LjM0OTg8L3RpdGxlPiYjeGE7CQkJPHBhdGggaWQ9InBhdGgyNjcyIiBpbmtzY2FwZTpjb25uZWN0b3ItY3VydmF0dXJlPSIwIiBzdHlsZT0iZmlsbDojRkZGRkZGOyIgZD0iTTYuODMsNjQuNTZjMC44NS0xLjI1LDAuODUtMS4yNSwwLjg1LTEuMjUgICAgIGMwLjA1LTAuMDcsMC4wMy0wLjE2LTAuMDEtMC4yMWMtMC4wOC0wLjA2LTAuMTctMC4wMy0wLjIzLDAuMDVjLTAuOSwxLjMyLTAuOSwxLjMyLTAuOSwxLjMyYy0wLjU4LTAuMjQtMS4yMy0wLjM5LTEuOTItMC4zOSAgICAgYy0wLjY3LDAtMS4zMiwwLjE1LTEuOSwwLjM5Yy0wLjktMS4zMi0wLjktMS4zMi0wLjktMS4zMmMtMC4wNi0wLjA4LTAuMTUtMC4xMS0wLjIzLTAuMDVjLTAuMDQsMC4wNS0wLjA2LDAuMTQtMC4wMSwwLjIxICAgICBjMC44NSwxLjI1LDAuODUsMS4yNSwwLjg1LDEuMjVDMS4wOCw2NS4yLDAuMTIsNjYuNDMsMCw2Ny44NGM5LjI0LDAsOS4yNCwwLDkuMjQsMEM5LjE0LDY2LjQzLDguMTgsNjUuMiw2LjgzLDY0LjU2eiAgICAgIE0yLjY5LDY2LjU1Yy0wLjI5LDAtMC41My0wLjI0LTAuNTMtMC41MmMwLTAuMjcsMC4yNC0wLjUxLDAuNTMtMC41MWMwLjI4LDAsMC40OSwwLjI0LDAuNDksMC41MSAgICAgQzMuMTgsNjYuMzEsMi45Nyw2Ni41NSwyLjY5LDY2LjU1eiBNNi42NSw2Ni41NWMtMC4yOSwwLTAuNS0wLjI0LTAuNS0wLjUyYzAtMC4yNywwLjIxLTAuNTEsMC41LTAuNTEgICAgIGMwLjI4LDAsMC41MSwwLjI0LDAuNTEsMC41MUM3LjE2LDY2LjMxLDYuOTMsNjYuNTUsNi42NSw2Ni41NXoiLz4mI3hhOwkJPC9nPiYjeGE7CTwvZz4mI3hhOzwvZz4mI3hhOzwvc3ZnPg==;" vertex="1" parent="1">
          <mxGeometry x="532.07" y="377" width="19.56" height="38" as="geometry" />
        </mxCell>
        <mxCell id="mdQV8XXlaroIpFqQpkAV-8" value="hls" style="shape=image;verticalLabelPosition=bottom;labelBackgroundColor=#ffffff;verticalAlign=top;aspect=fixed;imageAspect=0;image=data:image/svg+xml,PHN2ZyB4bWxuczpjYz0iaHR0cDovL2NyZWF0aXZlY29tbW9ucy5vcmcvbnMjIiB4bWxuczpkYz0iaHR0cDovL3B1cmwub3JnL2RjL2VsZW1lbnRzLzEuMS8iIHhtbG5zOmlua3NjYXBlPSJodHRwOi8vd3d3Lmlua3NjYXBlLm9yZy9uYW1lc3BhY2VzL2lua3NjYXBlIiB4bWxuczpyZGY9Imh0dHA6Ly93d3cudzMub3JnLzE5OTkvMDIvMjItcmRmLXN5bnRheC1ucyMiIHhtbG5zOnNvZGlwb2RpPSJodHRwOi8vc29kaXBvZGkuc291cmNlZm9yZ2UubmV0L0RURC9zb2RpcG9kaS0wLmR0ZCIgeG1sbnM6c3ZnPSJodHRwOi8vd3d3LnczLm9yZy8yMDAwL3N2ZyIgeG1sbnM9Imh0dHA6Ly93d3cudzMub3JnLzIwMDAvc3ZnIiB4bWxuczp4bGluaz0iaHR0cDovL3d3dy53My5vcmcvMTk5OS94bGluayIgdmVyc2lvbj0iMS4xIiBpZD0ic3ZnNDE2OSIgaW5rc2NhcGU6dmVyc2lvbj0iMC45Mi4zICgyNDA1NTQ2LCAyMDE4LTAzLTExKSIgc29kaXBvZGk6ZG9jbmFtZT0iZGV2aWNlX2lwaG9uZS5zdmciIHg9IjBweCIgeT0iMHB4IiB2aWV3Qm94PSIwIDAgMjguODEgNTguMTIiIHN0eWxlPSJlbmFibGUtYmFja2dyb3VuZDpuZXcgMCAwIDI4LjgxIDU4LjEyOyIgeG1sOnNwYWNlPSJwcmVzZXJ2ZSI+JiN4YTs8c29kaXBvZGk6bmFtZWR2aWV3IGJvcmRlcmNvbG9yPSIjNjY2NjY2IiBib3JkZXJvcGFjaXR5PSIxIiBmaXQtbWFyZ2luLWJvdHRvbT0iMCIgZml0LW1hcmdpbi1sZWZ0PSIwIiBmaXQtbWFyZ2luLXJpZ2h0PSIwIiBmaXQtbWFyZ2luLXRvcD0iMCIgZ3JpZHRvbGVyYW5jZT0iMTAiIGd1aWRldG9sZXJhbmNlPSIxMCIgaWQ9Im5hbWVkdmlldzQxNzEiIGlua3NjYXBlOmN1cnJlbnQtbGF5ZXI9InN2ZzQxNjkiIGlua3NjYXBlOmN4PSIxOS4yMDg4NTYiIGlua3NjYXBlOmN5PSIzOC43NDg4NDQiIGlua3NjYXBlOnBhZ2VvcGFjaXR5PSIwIiBpbmtzY2FwZTpwYWdlc2hhZG93PSIyIiBpbmtzY2FwZTp3aW5kb3ctaGVpZ2h0PSIxMDE3IiBpbmtzY2FwZTp3aW5kb3ctbWF4aW1pemVkPSIxIiBpbmtzY2FwZTp3aW5kb3ctd2lkdGg9IjE5MjAiIGlua3NjYXBlOndpbmRvdy14PSItOCIgaW5rc2NhcGU6d2luZG93LXk9Ii04IiBpbmtzY2FwZTp6b29tPSIxMS4xODg3IiBvYmplY3R0b2xlcmFuY2U9IjEwIiBwYWdlY29sb3I9IiNmZmZmZmYiIHNob3dncmlkPSJmYWxzZSI+JiN4YTsJPC9zb2RpcG9kaTpuYW1lZHZpZXc+JiN4YTs8ZyBpZD0iZzQxNjciIHRyYW5zZm9ybT0idHJhbnNsYXRlKC0xLjczNjE4NDllLTUpIj4mI3hhOwk8dGl0bGUgaWQ9InRpdGxlNDEyMiI+UGFnZS0xPC90aXRsZT4mI3hhOwk8ZyBpZD0iZ3JvdXAzNDU4LTEiPiYjeGE7CQk8dGl0bGUgaWQ9InRpdGxlNDEyNCI+RGV2aWNlOiBpUGhvbmU8L3RpdGxlPiYjeGE7CQk8ZyBpZD0ic2hhcGUzNDU5LTIiPiYjeGE7CQkJPHRpdGxlIGlkPSJ0aXRsZTQxMjYiPlNoZWV0LjM0NTk8L3RpdGxlPiYjeGE7CQkJPHBhdGggaWQ9InBhdGg0MTI4IiBpbmtzY2FwZTpjb25uZWN0b3ItY3VydmF0dXJlPSIwIiBzdHlsZT0iZmlsbDojM0Y1NzY1OyIgZD0iTTI4LjgxLDUzLjhjMCwyLjQyLTEuOSw0LjMyLTQuMzQsNC4zMiAgICAgYy0yMC4wNywwLTIwLjA3LDAtMjAuMDcsMGMtMi40MywwLTQuNC0xLjktNC40LTQuMzJDMCw0LjM3LDAsNC4zNywwLDQuMzdDMCwxLjk1LDEuOTcsMCw0LjQsMGMyMC4wNywwLDIwLjA3LDAsMjAuMDcsMCAgICAgYzIuNDQsMCw0LjM0LDEuOTUsNC4zNCw0LjM3VjUzLjh6Ii8+JiN4YTsJCTwvZz4mI3hhOwkJPGcgaWQ9InNoYXBlMzQ2MC00IiB0cmFuc2Zvcm09InRyYW5zbGF0ZSgxMi42MDU4LC01NC40MDIpIj4mI3hhOwkJCTx0aXRsZSBpZD0idGl0bGU0MTMxIj5TaGVldC4zNDYwPC90aXRsZT4mI3hhOwkJCTxwYXRoIGlkPSJwYXRoNDEzMyIgaW5rc2NhcGU6Y29ubmVjdG9yLWN1cnZhdHVyZT0iMCIgc3R5bGU9ImZpbGw6IzhFOUZCMDsiIGQ9Ik0zLjg0LDU3Ljg2YzAsMC4xNy0wLjA5LDAuMjYtMC4yNCwwLjI2ICAgICBjLTMuMzEsMC0zLjMxLDAtMy4zMSwwQzAuMTUsNTguMTIsMCw1OC4wMywwLDU3Ljg2bDAsMGMwLTAuMTMsMC4xNS0wLjIyLDAuMjktMC4yMmMzLjMxLDAsMy4zMSwwLDMuMzEsMCAgICAgQzMuNzUsNTcuNjQsMy44NCw1Ny43MywzLjg0LDU3Ljg2eiIvPiYjeGE7CQk8L2c+JiN4YTsJCTxnIGlkPSJzaGFwZTM0NjEtNiIgdHJhbnNmb3JtPSJ0cmFuc2xhdGUoMTIuNjA1OCwtMS43OTc0MikiPiYjeGE7CQkJPHRpdGxlIGlkPSJ0aXRsZTQxMzYiPlNoZWV0LjM0NjE8L3RpdGxlPiYjeGE7CQkJPHBhdGggaWQ9InBhdGg0MTM4IiBpbmtzY2FwZTpjb25uZWN0b3ItY3VydmF0dXJlPSIwIiBzdHlsZT0iZmlsbDojOEU5RkIwOyIgZD0iTTAsNTYuMjZjMC0xLjAyLDAuODYtMS44NiwxLjkyLTEuODYgICAgIGMxLjA3LDAsMS45MiwwLjg0LDEuOTIsMS44NmMwLDEuMDMtMC44NSwxLjg2LTEuOTIsMS44NkMwLjg2LDU4LjEyLDAsNTcuMjksMCw1Ni4yNnoiLz4mI3hhOwkJPC9nPiYjeGE7CQk8ZyBpZD0ic2hhcGUzNDYyLTgiIHRyYW5zZm9ybT0idHJhbnNsYXRlKDEwLjA4NDcsLTU0LjE2MjMpIj4mI3hhOwkJCTx0aXRsZSBpZD0idGl0bGU0MTQxIj5TaGVldC4zNDYyPC90aXRsZT4mI3hhOwkJCTxwYXRoIGlkPSJwYXRoNDE0MyIgaW5rc2NhcGU6Y29ubmVjdG9yLWN1cnZhdHVyZT0iMCIgc3R5bGU9ImZpbGw6IzhFOUZCMDsiIGQ9Ik0wLDU3LjY0YzAtMC4yNiwwLjIyLTAuNDgsMC40OC0wLjQ4ICAgICBjMC4yNywwLDAuNDgsMC4yMiwwLjQ4LDAuNDhjMCwwLjI3LTAuMjEsMC40OC0wLjQ4LDAuNDhDMC4yMiw1OC4xMiwwLDU3LjkxLDAsNTcuNjR6Ii8+JiN4YTsJCTwvZz4mI3hhOwkJPGcgaWQ9InNoYXBlMzQ2My0xMCIgdHJhbnNmb3JtPSJ0cmFuc2xhdGUoMTQuMjg2NiwtNTYuMzE5MykiPiYjeGE7CQkJPHRpdGxlIGlkPSJ0aXRsZTQxNDYiPlNoZWV0LjM0NjM8L3RpdGxlPiYjeGE7CQkJPHBhdGggaWQ9InBhdGg0MTQ4IiBpbmtzY2FwZTpjb25uZWN0b3ItY3VydmF0dXJlPSIwIiBzdHlsZT0iZmlsbDojOEU5RkIwOyIgZD0iTTAsNTcuODhjMC0wLjEzLDAuMTQtMC4yNCwwLjMtMC4yNCAgICAgYzAuMTcsMCwwLjMsMC4xMSwwLjMsMC4yNHMtMC4xMywwLjI0LTAuMywwLjI0QzAuMTQsNTguMTIsMCw1OC4wMSwwLDU3Ljg4eiIvPiYjeGE7CQk8L2c+JiN4YTsJCTxnIGlkPSJzaGFwZTM0NjQtMTIiIHRyYW5zZm9ybT0idHJhbnNsYXRlKDEuNjgwNzgsLTYuMzUwODkpIj4mI3hhOwkJCTx0aXRsZSBpZD0idGl0bGU0MTUxIj5TaGVldC4zNDY0PC90aXRsZT4mI3hhOwkJCTxwYXRoIGlkPSJwYXRoNDE1MyIgaW5rc2NhcGU6Y29ubmVjdG9yLWN1cnZhdHVyZT0iMCIgc3R5bGU9ImZpbGw6IzhEOUZCMDsiIGQ9Ik0wLDEyLjd2NDUuNDJoMjUuNjlWMTIuN0gweiIvPiYjeGE7CQk8L2c+JiN4YTsJCTxnIGlkPSJzaGFwZTM0NjUtMTQiIHRyYW5zZm9ybT0idHJhbnNsYXRlKDguNDM4NDgsLTIzLjYwNjIpIj4mI3hhOwkJCTx0aXRsZSBpZD0idGl0bGU0MTU2Ij5TaGVldC4zNDY1PC90aXRsZT4mI3hhOwkJCTxwYXRoIGlkPSJwYXRoNDE1OCIgaW5rc2NhcGU6Y29ubmVjdG9yLWN1cnZhdHVyZT0iMCIgc3R5bGU9ImZpbGw6I0ZGRkZGRjsiIGQ9Ik0xMi4zMyw1NC4yOWMtMC4zNCwwLjczLTAuNTEsMS4wNy0wLjk0LDEuNzIgICAgIGMtMC42LDAuOTUtMS40NiwyLjA3LTIuNSwyLjExYy0wLjk0LDAtMS4yLTAuNjUtMi40NS0wLjZjLTEuMjgsMC0xLjU0LDAuNi0yLjQ5LDAuNmMtMS4wNy0wLjA0LTEuODUtMS4wNy0yLjQ1LTEuOTggICAgIGMtMS43Mi0yLjU4LTEuODktNS42LTAuODYtNy4yNGMwLjc3LTEuMTIsMS45NC0xLjgxLDMuMDEtMS44MWMxLjEyLDAsMS44NSwwLjY1LDIuNzUsMC42NXMxLjQ3LTAuNjUsMi43NS0wLjY1ICAgICBjMC45OSwwLDIuMDMsMC41NiwyLjc1LDEuNDdDOS40OSw0OS44OSw5Ljg5LDUzLjM0LDEyLjMzLDU0LjI5eiIvPiYjeGE7CQk8L2c+JiN4YTsJCTxnIGlkPSJzaGFwZTM0NjYtMTYiIHRyYW5zZm9ybT0idHJhbnNsYXRlKDEzLjU3NjYsLTM0LjUxMDUpIj4mI3hhOwkJCTx0aXRsZSBpZD0idGl0bGU0MTYxIj5TaGVldC4zNDY2PC90aXRsZT4mI3hhOwkJCTxwYXRoIGlkPSJwYXRoNDE2MyIgaW5rc2NhcGU6Y29ubmVjdG9yLWN1cnZhdHVyZT0iMCIgc3R5bGU9ImZpbGw6I0ZGRkZGRjsiIGQ9Ik0yLjIsNTYuOTZjMC40NS0wLjYsMC43OS0xLjQxLDAuNjctMi4zMiAgICAgYy0wLjcyLDAuMDktMS42LDAuNTYtMi4xNSwxLjIxYy0wLjQ3LDAuNTUtMC44NSwxLjQxLTAuNjgsMi4yN0MwLjg1LDU4LjEyLDEuNzMsNTcuNjQsMi4yLDU2Ljk2eiIvPiYjeGE7CQk8L2c+JiN4YTsJPC9nPiYjeGE7PC9nPiYjeGE7PC9zdmc+;" vertex="1" parent="1">
          <mxGeometry x="572.07" y="377" width="19" height="38" as="geometry" />
        </mxCell>
        <mxCell id="mdQV8XXlaroIpFqQpkAV-10" value="hls" style="shape=image;verticalLabelPosition=bottom;labelBackgroundColor=#ffffff;verticalAlign=top;aspect=fixed;imageAspect=0;image=data:image/svg+xml,PHN2ZyB4bWxuczpjYz0iaHR0cDovL2NyZWF0aXZlY29tbW9ucy5vcmcvbnMjIiB4bWxuczpkYz0iaHR0cDovL3B1cmwub3JnL2RjL2VsZW1lbnRzLzEuMS8iIHhtbG5zOmlua3NjYXBlPSJodHRwOi8vd3d3Lmlua3NjYXBlLm9yZy9uYW1lc3BhY2VzL2lua3NjYXBlIiB4bWxuczpyZGY9Imh0dHA6Ly93d3cudzMub3JnLzE5OTkvMDIvMjItcmRmLXN5bnRheC1ucyMiIHhtbG5zOnNvZGlwb2RpPSJodHRwOi8vc29kaXBvZGkuc291cmNlZm9yZ2UubmV0L0RURC9zb2RpcG9kaS0wLmR0ZCIgeG1sbnM6c3ZnPSJodHRwOi8vd3d3LnczLm9yZy8yMDAwL3N2ZyIgeG1sbnM9Imh0dHA6Ly93d3cudzMub3JnLzIwMDAvc3ZnIiB4bWxuczp4bGluaz0iaHR0cDovL3d3dy53My5vcmcvMTk5OS94bGluayIgdmVyc2lvbj0iMS4xIiBpZD0ic3ZnMzc5NyIgaW5rc2NhcGU6dmVyc2lvbj0iMC45Mi4zICgyNDA1NTQ2LCAyMDE4LTAzLTExKSIgc29kaXBvZGk6ZG9jbmFtZT0iZGV2aWNlX2lwYWRfMS5zdmciIHg9IjBweCIgeT0iMHB4IiB2aWV3Qm94PSIwIDAgNDMuNDYgMjkuNDEiIHN0eWxlPSJlbmFibGUtYmFja2dyb3VuZDpuZXcgMCAwIDQzLjQ2IDI5LjQxOyIgeG1sOnNwYWNlPSJwcmVzZXJ2ZSI+JiN4YTs8c29kaXBvZGk6bmFtZWR2aWV3IGJvcmRlcmNvbG9yPSIjNjY2NjY2IiBib3JkZXJvcGFjaXR5PSIxIiBmaXQtbWFyZ2luLWJvdHRvbT0iMCIgZml0LW1hcmdpbi1sZWZ0PSIwIiBmaXQtbWFyZ2luLXJpZ2h0PSIwIiBmaXQtbWFyZ2luLXRvcD0iMCIgZ3JpZHRvbGVyYW5jZT0iMTAiIGd1aWRldG9sZXJhbmNlPSIxMCIgaWQ9Im5hbWVkdmlldzM3OTkiIGlua3NjYXBlOmN1cnJlbnQtbGF5ZXI9InN2ZzM3OTciIGlua3NjYXBlOmN4PSIyOC45NzU5MiIgaW5rc2NhcGU6Y3k9IjE5LjYwNzA1NyIgaW5rc2NhcGU6cGFnZW9wYWNpdHk9IjAiIGlua3NjYXBlOnBhZ2VzaGFkb3c9IjIiIGlua3NjYXBlOndpbmRvdy1oZWlnaHQ9IjEwMTciIGlua3NjYXBlOndpbmRvdy1tYXhpbWl6ZWQ9IjEiIGlua3NjYXBlOndpbmRvdy13aWR0aD0iMTkyMCIgaW5rc2NhcGU6d2luZG93LXg9Ii04IiBpbmtzY2FwZTp3aW5kb3cteT0iLTgiIGlua3NjYXBlOnpvb209IjIyLjExMDIxOCIgb2JqZWN0dG9sZXJhbmNlPSIxMCIgcGFnZWNvbG9yPSIjZmZmZmZmIiBzaG93Z3JpZD0iZmFsc2UiPiYjeGE7CTwvc29kaXBvZGk6bmFtZWR2aWV3PiYjeGE7PGcgaWQ9ImczNzk1IiB0cmFuc2Zvcm09InRyYW5zbGF0ZSgwLC00LjY0NzczNDllLTUpIj4mI3hhOwk8dGl0bGUgaWQ9InRpdGxlMzc3MCI+UGFnZS0xPC90aXRsZT4mI3hhOwk8ZyBpZD0iZ3JvdXAzMjMxLTEiPiYjeGE7CQk8dGl0bGUgaWQ9InRpdGxlMzc3MiI+RGV2aWNlOiBpUGFkICMxPC90aXRsZT4mI3hhOwkJPGcgaWQ9InNoYXBlMzIzMi0yIj4mI3hhOwkJCTx0aXRsZSBpZD0idGl0bGUzNzc0Ij5TaGVldC4zMjMyPC90aXRsZT4mI3hhOwkJCTxwYXRoIGlkPSJwYXRoMzc3NiIgaW5rc2NhcGU6Y29ubmVjdG9yLWN1cnZhdHVyZT0iMCIgc3R5bGU9ImZpbGw6IzNGNTc2NTsiIGQ9Ik0xLjc2LDI5LjQxQzAuODgsMjkuNDEsMCwyOC41MywwLDI3LjY1ICAgICBDMCwxLjgsMCwxLjgsMCwxLjhDMCwwLjkyLDAuODgsMCwxLjc2LDBjMzkuOTgsMCwzOS45OCwwLDM5Ljk4LDBjMC44OCwwLDEuNzIsMC45MiwxLjcyLDEuOGMwLDI1Ljg1LDAsMjUuODUsMCwyNS44NSAgICAgYzAsMC44OC0wLjg0LDEuNzYtMS43MiwxLjc2SDEuNzZ6Ii8+JiN4YTsJCTwvZz4mI3hhOwkJPGcgaWQ9InNoYXBlMzIzMy00IiB0cmFuc2Zvcm09InRyYW5zbGF0ZSgzLjA2MDg0LC0zLjY3NjE4KSI+JiN4YTsJCQk8dGl0bGUgaWQ9InRpdGxlMzc3OSI+U2hlZXQuMzIzMzwvdGl0bGU+JiN4YTsJCQk8cGF0aCBpZD0icGF0aDM3ODEiIGlua3NjYXBlOmNvbm5lY3Rvci1jdXJ2YXR1cmU9IjAiIHN0eWxlPSJmaWxsOiNGRkZGRkY7IiBkPSJNMCw3LjM1djIyLjA2aDM2LjczVjcuMzVIMHoiLz4mI3hhOwkJPC9nPiYjeGE7CQk8ZyBpZD0ic2hhcGUzMjM0LTYiIHRyYW5zZm9ybT0idHJhbnNsYXRlKDE1LjM2MzUsLTYuNzM5NjcpIj4mI3hhOwkJCTx0aXRsZSBpZD0idGl0bGUzNzg0Ij5TaGVldC4zMjM0PC90aXRsZT4mI3hhOwkJCTxwYXRoIGlkPSJwYXRoMzc4NiIgaW5rc2NhcGU6Y29ubmVjdG9yLWN1cnZhdHVyZT0iMCIgc3R5bGU9ImZpbGw6IzNGNTc2NTsiIGQ9Ik0xMC4yMywyMS44N2MwLTIuMDMsMS41My0yLjkxLDEuNTMtMy4xNCAgICAgYy0wLjg4LTEuMzQtMi4xOC0xLjU3LTIuODMtMS41N2MtMS4wNywwLTIuMTgsMC45MS0yLjgzLDAuOTFjLTAuNDIsMC0xLjUzLTAuOTEtMi40MS0wLjkxYy0xLjMsMC4yMy0yLjM3LDAuOTEtMy4wMiwyLjI1ICAgICBjLTEuMzQsMi40Ni0wLjQ2LDYuMDIsMC44NCw4LjAxYzAuNjksMC44OCwxLjM0LDEuOTksMi40MSwxLjk5YzAuODgsMCwxLjMtMC42NSwyLjQxLTAuNjVjMS4wNywwLDEuNTMsMC42NSwyLjYsMC42NSAgICAgYzAuODgsMCwxLjUzLTEuMTEsMi4xOC0xLjk5YzAuNjUtMS4xMSwxLjA3LTIuMjIsMS4wNy0yLjIyUzEwLjIzLDI0LjMyLDEwLjIzLDIxLjg3eiIvPiYjeGE7CQk8L2c+JiN4YTsJCTxnIGlkPSJzaGFwZTMyMzUtOCIgdHJhbnNmb3JtPSJ0cmFuc2xhdGUoMjEuNTkwNSwtMTkuMTUyOCkiPiYjeGE7CQkJPHRpdGxlIGlkPSJ0aXRsZTM3ODkiPlNoZWV0LjMyMzU8L3RpdGxlPiYjeGE7CQkJPHBhdGggaWQ9InBhdGgzNzkxIiBpbmtzY2FwZTpjb25uZWN0b3ItY3VydmF0dXJlPSIwIiBzdHlsZT0iZmlsbDojM0Y1NzY1OyIgZD0iTTIuMDksMjguM2MwLjQyLTAuNjUsMC44MS0xLjUzLDAuODEtMi40MSAgICAgYy0wLjgxLDAtMS42MSwwLjQ2LTIuMjIsMS4xMWMtMC40MiwwLjY1LTAuODQsMS41LTAuNjIsMi4zOEMwLjg3LDI5LjU3LDEuNjcsMjguOTYsMi4wOSwyOC4zeiIvPiYjeGE7CQk8L2c+JiN4YTsJPC9nPiYjeGE7PC9nPiYjeGE7PC9zdmc+;" vertex="1" parent="1">
          <mxGeometry x="466.07" y="381.5" width="43" height="29" as="geometry" />
        </mxCell>
        <mxCell id="mdQV8XXlaroIpFqQpkAV-12" value="" style="rounded=1;whiteSpace=wrap;html=1;" vertex="1" parent="1">
          <mxGeometry x="700" y="361" width="333.13" height="89" as="geometry" />
        </mxCell>
        <mxCell id="mdQV8XXlaroIpFqQpkAV-13" value="flv" style="shape=image;verticalLabelPosition=bottom;labelBackgroundColor=#ffffff;verticalAlign=top;aspect=fixed;imageAspect=0;image=data:image/svg+xml,PHN2ZyB4bWxuczpjYz0iaHR0cDovL2NyZWF0aXZlY29tbW9ucy5vcmcvbnMjIiB4bWxuczpkYz0iaHR0cDovL3B1cmwub3JnL2RjL2VsZW1lbnRzLzEuMS8iIHhtbG5zOmlua3NjYXBlPSJodHRwOi8vd3d3Lmlua3NjYXBlLm9yZy9uYW1lc3BhY2VzL2lua3NjYXBlIiB4bWxuczpyZGY9Imh0dHA6Ly93d3cudzMub3JnLzE5OTkvMDIvMjItcmRmLXN5bnRheC1ucyMiIHhtbG5zOnNvZGlwb2RpPSJodHRwOi8vc29kaXBvZGkuc291cmNlZm9yZ2UubmV0L0RURC9zb2RpcG9kaS0wLmR0ZCIgeG1sbnM6c3ZnPSJodHRwOi8vd3d3LnczLm9yZy8yMDAwL3N2ZyIgeG1sbnM9Imh0dHA6Ly93d3cudzMub3JnLzIwMDAvc3ZnIiB4bWxuczp4bGluaz0iaHR0cDovL3d3dy53My5vcmcvMTk5OS94bGluayIgdmVyc2lvbj0iMS4xIiBpZD0ic3ZnMjM0MzciIGlua3NjYXBlOnZlcnNpb249IjAuOTIuMyAoMjQwNTU0NiwgMjAxOC0wMy0xMSkiIHNvZGlwb2RpOmRvY25hbWU9Im1hYy5zdmciIHg9IjBweCIgeT0iMHB4IiB2aWV3Qm94PSIwIDAgNjYuMTEgMzUuNTQiIHN0eWxlPSJlbmFibGUtYmFja2dyb3VuZDpuZXcgMCAwIDY2LjExIDM1LjU0OyIgeG1sOnNwYWNlPSJwcmVzZXJ2ZSI+JiN4YTs8c29kaXBvZGk6bmFtZWR2aWV3IGJvcmRlcmNvbG9yPSIjNjY2NjY2IiBib3JkZXJvcGFjaXR5PSIxIiBmaXQtbWFyZ2luLWJvdHRvbT0iMCIgZml0LW1hcmdpbi1sZWZ0PSIwIiBmaXQtbWFyZ2luLXJpZ2h0PSIwIiBmaXQtbWFyZ2luLXRvcD0iMCIgZ3JpZHRvbGVyYW5jZT0iMTAiIGd1aWRldG9sZXJhbmNlPSIxMCIgaWQ9Im5hbWVkdmlldzIzNDM5IiBpbmtzY2FwZTpjdXJyZW50LWxheWVyPSJzdmcyMzQzNyIgaW5rc2NhcGU6Y3g9IjQ0LjA3NjA0NyIgaW5rc2NhcGU6Y3k9IjIzLjY5NTcyMiIgaW5rc2NhcGU6cGFnZW9wYWNpdHk9IjAiIGlua3NjYXBlOnBhZ2VzaGFkb3c9IjIiIGlua3NjYXBlOndpbmRvdy1oZWlnaHQ9IjEwMTciIGlua3NjYXBlOndpbmRvdy1tYXhpbWl6ZWQ9IjEiIGlua3NjYXBlOndpbmRvdy13aWR0aD0iMTkyMCIgaW5rc2NhcGU6d2luZG93LXg9Ii04IiBpbmtzY2FwZTp3aW5kb3cteT0iLTgiIGlua3NjYXBlOnpvb209IjE4LjI5ODE0NCIgb2JqZWN0dG9sZXJhbmNlPSIxMCIgcGFnZWNvbG9yPSIjZmZmZmZmIiBzaG93Z3JpZD0iZmFsc2UiPiYjeGE7CTwvc29kaXBvZGk6bmFtZWR2aWV3PiYjeGE7PGcgaWQ9ImcyMzQzNSI+JiN4YTsJPHRpdGxlIGlkPSJ0aXRsZTIzNDA1Ij5QYWdlLTE8L3RpdGxlPiYjeGE7CTxnIGlkPSJncm91cDM4MTUtMSI+JiN4YTsJCTx0aXRsZSBpZD0idGl0bGUyMzQwNyI+TWFjPC90aXRsZT4mI3hhOwkJPGcgaWQ9InNoYXBlMzgxNi0yIj4mI3hhOwkJCTx0aXRsZSBpZD0idGl0bGUyMzQwOSI+U2hlZXQuMzgxNjwvdGl0bGU+JiN4YTsJCQk8cGF0aCBpZD0icGF0aDIzNDExIiBpbmtzY2FwZTpjb25uZWN0b3ItY3VydmF0dXJlPSIwIiBzdHlsZT0iZmlsbDojM0Y1NzY1OyIgZD0iTTU2LjA1LDBDMTAuMSwwLDEwLjEsMCwxMC4xLDAgICAgIEM5LjIyLDAsOC4zNCwwLjY5LDguMzQsMS41N2MwLDI4LjQ5LDAsMjguNDksMCwyOC40OWMwLDAuODgsMC44OCwxLjUzLDEuNzYsMS41M2M0NS45NSwwLDQ1Ljk1LDAsNDUuOTUsMCAgICAgYzEuMTEsMCwxLjc2LTAuNjUsMS43Ni0xLjUzYzAtMjguNDksMC0yOC40OSwwLTI4LjQ5QzU3LjgxLDAuNjksNTcuMTYsMCw1Ni4wNSwweiBNNTUuNjMsMjkuODdjLTQ1LjExLDAtNDUuMTEsMC00NS4xMSwwICAgICBjMC0yOC4xMSwwLTI4LjExLDAtMjguMTFjNDUuMTEsMCw0NS4xMSwwLDQ1LjExLDBDNTUuNjMsMjkuODcsNTUuNjMsMjkuODcsNTUuNjMsMjkuODd6IE0zNy42OSwzMi45M2MwLDAuMTksMCwwLjE5LDAsMC4xOSAgICAgYzAsMC40Ni0wLjQ2LDAuNjktMC42OSwwLjY5Yy03Ljg4LDAtNy44OCwwLTcuODgsMGMtMC4yLDAtMC40Mi0wLjIzLTAuNDItMC42OWMwLTAuMTksMC0wLjE5LDAtMC4xOWMtMjguNywwLTI4LjcsMC0yOC43LDAgICAgIGMwLDEuNzYsMCwxLjc2LDAsMS43NnMxLjU3LDAuODUsMi4yMiwwLjg1bDAsMGM2MS43MSwwLDYxLjcxLDAsNjEuNzEsMGwwLDBjMC42NSwwLDIuMTgtMC44NSwyLjE4LTAuODVjMC0xLjc2LDAtMS43NiwwLTEuNzYgICAgIEMzNy42OSwzMi45MywzNy42OSwzMi45MywzNy42OSwzMi45M0wzNy42OSwzMi45M3oiLz4mI3hhOwkJPC9nPiYjeGE7CQk8ZyBpZD0ic2hhcGUzODE3LTQiIHRyYW5zZm9ybT0idHJhbnNsYXRlKDEwLjQwNjgsLTUuNTE0MjcpIj4mI3hhOwkJCTx0aXRsZSBpZD0idGl0bGUyMzQxNCI+U2hlZXQuMzgxNzwvdGl0bGU+JiN4YTsJCQk8cGF0aCBpZD0icGF0aDIzNDE2IiBpbmtzY2FwZTpjb25uZWN0b3ItY3VydmF0dXJlPSIwIiBzdHlsZT0iZmlsbDojRkZGRkZGOyIgZD0iTTQ1LjMsMzUuNTRIMFY3LjM1aDQ1LjNWMzUuNTR6Ii8+JiN4YTsJCTwvZz4mI3hhOwkJPGcgaWQ9InNoYXBlMzgxOC02IiB0cmFuc2Zvcm09InRyYW5zbGF0ZSg5LjQ0MjE5LC01LjIwNzkyKSI+JiN4YTsJCQk8dGl0bGUgaWQ9InRpdGxlMjM0MTkiPlNoZWV0LjM4MTg8L3RpdGxlPiYjeGE7CQkJPHBhdGggaWQ9InBhdGgyMzQyMSIgaW5rc2NhcGU6Y29ubmVjdG9yLWN1cnZhdHVyZT0iMCIgc3R5bGU9ImZpbGw6bm9uZTsiIGQ9Ik00Ni41NywzNS41NEgwVjUuODVoNDYuNTdWMzUuNTRMNDYuNTcsMzUuNTQgICAgIEw0Ni41NywzNS41NCIvPiYjeGE7CQk8L2c+JiN4YTsJCTxnIGlkPSJzaGFwZTM4MTktOSIgdHJhbnNmb3JtPSJ0cmFuc2xhdGUoMjcuMDMzNywtMTIuMjUzOSkiPiYjeGE7CQkJPHRpdGxlIGlkPSJ0aXRsZTIzNDI0Ij5TaGVldC4zODE5PC90aXRsZT4mI3hhOwkJCTxwYXRoIGlkPSJwYXRoMjM0MjYiIGlua3NjYXBlOmNvbm5lY3Rvci1jdXJ2YXR1cmU9IjAiIHN0eWxlPSJmaWxsOiMzRjU3NjU7IiBkPSJNMTAsMjcuOTljMC0yLjAzLDEuNzItMi45MSwxLjcyLTMuMTQgICAgIGMtMC44NC0xLjM0LTIuMzMtMS41Ny0yLjc5LTEuNTdjLTEuMDcsMC0yLjE0LDAuOTItMi43NSwwLjkyYy0wLjY1LDAtMS41My0wLjkyLTIuMzgtMC45MmMtMS4zLDAuMjMtMi41NiwwLjkyLTMuMjEsMi4wMyAgICAgYy0xLjMsMi40NS0wLjIzLDYuMjQsMS4wNyw4LjI0YzAuNjUsMC44OCwxLjMsMS45OSwyLjM3LDEuOTljMC44NSwwLDEuMjctMC42NSwyLjM0LTAuNjVzMS40OSwwLjY1LDIuMzcsMC42NSAgICAgYzEuMDcsMCwxLjcyLTEuMTEsMi4zMy0xLjk5YzAuNjUtMS4xMiwxLjA3LTIuMjMsMS4wNy0yLjIzUzEwLDMwLjQ0LDEwLDI3Ljk5eiIvPiYjeGE7CQk8L2c+JiN4YTsJCTxnIGlkPSJzaGFwZTM4MjAtMTEiIHRyYW5zZm9ybT0idHJhbnNsYXRlKDMzLjA1NywtMjQuNjY3MSkiPiYjeGE7CQkJPHRpdGxlIGlkPSJ0aXRsZTIzNDI5Ij5TaGVldC4zODIwPC90aXRsZT4mI3hhOwkJCTxwYXRoIGlkPSJwYXRoMjM0MzEiIGlua3NjYXBlOmNvbm5lY3Rvci1jdXJ2YXR1cmU9IjAiIHN0eWxlPSJmaWxsOiMzRjU3NjU7IiBkPSJNMi4yNiwzNC40M2MwLjQyLTAuNjUsMC44LTEuNTMsMC42MS0yLjQxICAgICBjLTAuNjEsMC0xLjQyLDAuNDYtMi4wMywxLjExQzAuNDIsMzMuNzgsMCwzNC42MiwwLDM1LjVDMC44NCwzNS43LDEuNjUsMzUuMDgsMi4yNiwzNC40M3oiLz4mI3hhOwkJPC9nPiYjeGE7CTwvZz4mI3hhOzwvZz4mI3hhOzwvc3ZnPg==;" vertex="1" parent="1">
          <mxGeometry x="717.5699999999999" y="372" width="66" height="36" as="geometry" />
        </mxCell>
        <mxCell id="mdQV8XXlaroIpFqQpkAV-14" value="flv" style="shape=image;verticalLabelPosition=bottom;labelBackgroundColor=#ffffff;verticalAlign=top;aspect=fixed;imageAspect=0;image=data:image/svg+xml,PHN2ZyB4bWxuczpjYz0iaHR0cDovL2NyZWF0aXZlY29tbW9ucy5vcmcvbnMjIiB4bWxuczpkYz0iaHR0cDovL3B1cmwub3JnL2RjL2VsZW1lbnRzLzEuMS8iIHhtbG5zOmlua3NjYXBlPSJodHRwOi8vd3d3Lmlua3NjYXBlLm9yZy9uYW1lc3BhY2VzL2lua3NjYXBlIiB4bWxuczpyZGY9Imh0dHA6Ly93d3cudzMub3JnLzE5OTkvMDIvMjItcmRmLXN5bnRheC1ucyMiIHhtbG5zOnNvZGlwb2RpPSJodHRwOi8vc29kaXBvZGkuc291cmNlZm9yZ2UubmV0L0RURC9zb2RpcG9kaS0wLmR0ZCIgeG1sbnM6c3ZnPSJodHRwOi8vd3d3LnczLm9yZy8yMDAwL3N2ZyIgeG1sbnM9Imh0dHA6Ly93d3cudzMub3JnLzIwMDAvc3ZnIiB4bWxuczp4bGluaz0iaHR0cDovL3d3dy53My5vcmcvMTk5OS94bGluayIgdmVyc2lvbj0iMS4xIiBpZD0ic3ZnMjExNDciIGlua3NjYXBlOnZlcnNpb249IjAuOTIuMyAoMjQwNTU0NiwgMjAxOC0wMy0xMSkiIHNvZGlwb2RpOmRvY25hbWU9ImxhcHRvcF93aW5kb3dzXzIuc3ZnIiB4PSIwcHgiIHk9IjBweCIgdmlld0JveD0iMCAwIDY2LjExIDM1LjU0IiBzdHlsZT0iZW5hYmxlLWJhY2tncm91bmQ6bmV3IDAgMCA2Ni4xMSAzNS41NDsiIHhtbDpzcGFjZT0icHJlc2VydmUiPiYjeGE7PHNvZGlwb2RpOm5hbWVkdmlldyBib3JkZXJjb2xvcj0iIzY2NjY2NiIgYm9yZGVyb3BhY2l0eT0iMSIgZml0LW1hcmdpbi1ib3R0b209IjAiIGZpdC1tYXJnaW4tbGVmdD0iMCIgZml0LW1hcmdpbi1yaWdodD0iMCIgZml0LW1hcmdpbi10b3A9IjAiIGdyaWR0b2xlcmFuY2U9IjEwIiBndWlkZXRvbGVyYW5jZT0iMTAiIGlkPSJuYW1lZHZpZXcyMTE0OSIgaW5rc2NhcGU6Y3VycmVudC1sYXllcj0ic3ZnMjExNDciIGlua3NjYXBlOmN4PSI0NC4wNzYwNDciIGlua3NjYXBlOmN5PSIyMy42OTU3MjIiIGlua3NjYXBlOnBhZ2VvcGFjaXR5PSIwIiBpbmtzY2FwZTpwYWdlc2hhZG93PSIyIiBpbmtzY2FwZTp3aW5kb3ctaGVpZ2h0PSIxMDE3IiBpbmtzY2FwZTp3aW5kb3ctbWF4aW1pemVkPSIxIiBpbmtzY2FwZTp3aW5kb3ctd2lkdGg9IjE5MjAiIGlua3NjYXBlOndpbmRvdy14PSItOCIgaW5rc2NhcGU6d2luZG93LXk9Ii04IiBpbmtzY2FwZTp6b29tPSIxOC4yOTgxNDQiIG9iamVjdHRvbGVyYW5jZT0iMTAiIHBhZ2Vjb2xvcj0iI2ZmZmZmZiIgc2hvd2dyaWQ9ImZhbHNlIj4mI3hhOwk8L3NvZGlwb2RpOm5hbWVkdmlldz4mI3hhOzxnIGlkPSJnMjExNDUiPiYjeGE7CTx0aXRsZSBpZD0idGl0bGUyMTEwNSI+UGFnZS0xPC90aXRsZT4mI3hhOwk8ZyBpZD0iZ3JvdXAzNzg0LTEiPiYjeGE7CQk8dGl0bGUgaWQ9InRpdGxlMjExMDciPkxhcHRvcCAoV2luZG93cykgIzI8L3RpdGxlPiYjeGE7CQk8ZyBpZD0ic2hhcGUzNzg1LTIiIHRyYW5zZm9ybT0idHJhbnNsYXRlKDkuNDM1NDMsLTQuODMxMTYpIj4mI3hhOwkJCTx0aXRsZSBpZD0idGl0bGUyMTEwOSI+U2hlZXQuMzc4NTwvdGl0bGU+JiN4YTsJCQk8cGF0aCBpZD0icGF0aDIxMTExIiBpbmtzY2FwZTpjb25uZWN0b3ItY3VydmF0dXJlPSIwIiBzdHlsZT0iZmlsbDojRkZGRkZGOyIgZD0iTTQ2Ljk0LDM1LjU0SDBWNi4wNmg0Ni45NFYzNS41NHoiLz4mI3hhOwkJPC9nPiYjeGE7CQk8ZyBpZD0ic2hhcGUzNzg2LTQiPiYjeGE7CQkJPHRpdGxlIGlkPSJ0aXRsZTIxMTE0Ij5TaGVldC4zNzg2PC90aXRsZT4mI3hhOwkJCTxwYXRoIGlkPSJwYXRoMjExMTYiIGlua3NjYXBlOmNvbm5lY3Rvci1jdXJ2YXR1cmU9IjAiIHN0eWxlPSJmaWxsOiMzRjU3NjU7IiBkPSJNNTYuMDUsMEMxMC4xLDAsMTAuMSwwLDEwLjEsMCAgICAgQzkuMjIsMCw4LjM0LDAuNjksOC4zNCwxLjc2YzAsMjguMywwLDI4LjMsMCwyOC4zYzAsMS4xMSwwLjg4LDEuNzYsMS43NiwxLjc2YzQ1Ljk1LDAsNDUuOTUsMCw0NS45NSwwICAgICBjMS4xMSwwLDEuNzYtMC42NSwxLjc2LTEuNzZjMC0yOC4zLDAtMjguMywwLTI4LjNDNTcuODEsMC42OSw1Ny4xNiwwLDU2LjA1LDB6IE01NS42MywyOS44N2MtNDUuMTEsMC00NS4xMSwwLTQ1LjExLDAgICAgIGMwLTI4LjExLDAtMjguMTEsMC0yOC4xMWM0NS4xMSwwLDQ1LjExLDAsNDUuMTEsMEM1NS42MywyOS44Nyw1NS42MywyOS44Nyw1NS42MywyOS44N3ogTTM3LjY5LDMyLjkzYzAsMC40MiwwLDAuNDIsMCwwLjQyICAgICBjMCwwLjIzLTAuNDYsMC40Ni0wLjY5LDAuNDZjLTcuODgsMC03Ljg4LDAtNy44OCwwYy0wLjIsMC0wLjQyLTAuMjMtMC40Mi0wLjQ2YzAtMC40MiwwLTAuNDIsMC0wLjQyYy0yOC43LDAtMjguNywwLTI4LjcsMCAgICAgYzAsMS43NiwwLDEuNzYsMCwxLjc2czEuNTcsMC44NSwyLjIyLDAuODVsMCwwYzYxLjcxLDAsNjEuNzEsMCw2MS43MSwwbDAsMGMwLjY1LDAsMi4xOC0wLjg1LDIuMTgtMC44NWMwLTEuNzYsMC0xLjc2LDAtMS43NiAgICAgQzM3LjY5LDMyLjkzLDM3LjY5LDMyLjkzLDM3LjY5LDMyLjkzTDM3LjY5LDMyLjkzeiIvPiYjeGE7CQk8L2c+JiN4YTsJCTxnIGlkPSJzaGFwZTM3ODctNiIgdHJhbnNmb3JtPSJ0cmFuc2xhdGUoMTAuNzEyOSwtNS44MjA2MikiPiYjeGE7CQkJPHRpdGxlIGlkPSJ0aXRsZTIxMTE5Ij5TaGVldC4zNzg3PC90aXRsZT4mI3hhOwkJCTxwYXRoIGlkPSJwYXRoMjExMjEiIGlua3NjYXBlOmNvbm5lY3Rvci1jdXJ2YXR1cmU9IjAiIHN0eWxlPSJmaWxsOm5vbmU7IiBkPSJNNDUuOTcsMzUuNTRIMFY3LjM1aDQ1Ljk3VjM1LjU0TDQ1Ljk3LDM1LjU0ICAgICBMNDUuOTcsMzUuNTQiLz4mI3hhOwkJPC9nPiYjeGE7CQk8ZyBpZD0ic2hhcGUzNzg4LTkiIHRyYW5zZm9ybT0idHJhbnNsYXRlKDMzLjA1NywtMTEuNjQxMikiPiYjeGE7CQkJPHRpdGxlIGlkPSJ0aXRsZTIxMTI0Ij5TaGVldC4zNzg4PC90aXRsZT4mI3hhOwkJCTxwYXRoIGlkPSJwYXRoMjExMjYiIGlua3NjYXBlOmNvbm5lY3Rvci1jdXJ2YXR1cmU9IjAiIHN0eWxlPSJmaWxsOiMzRjU3NjU7IiBkPSJNMCwyOC4xOHY3LjM2aDcuMzV2LTcuMzZIMHoiLz4mI3hhOwkJPC9nPiYjeGE7CQk8ZyBpZD0ic2hhcGUzNzg5LTExIiB0cmFuc2Zvcm09InRyYW5zbGF0ZSgyNC40ODY3LC0xMS42NDEyKSI+JiN4YTsJCQk8dGl0bGUgaWQ9InRpdGxlMjExMjkiPlNoZWV0LjM3ODk8L3RpdGxlPiYjeGE7CQkJPHBhdGggaWQ9InBhdGgyMTEzMSIgaW5rc2NhcGU6Y29ubmVjdG9yLWN1cnZhdHVyZT0iMCIgc3R5bGU9ImZpbGw6IzNGNTc2NTsiIGQ9Ik0wLDI4LjE4djcuMzZoNy4zNXYtNy4zNkgweiIvPiYjeGE7CQk8L2c+JiN4YTsJCTxnIGlkPSJzaGFwZTM3OTAtMTMiIHRyYW5zZm9ybT0idHJhbnNsYXRlKDMzLjA1NywtMjAuMjE5KSI+JiN4YTsJCQk8dGl0bGUgaWQ9InRpdGxlMjExMzQiPlNoZWV0LjM3OTA8L3RpdGxlPiYjeGE7CQkJPHBhdGggaWQ9InBhdGgyMTEzNiIgaW5rc2NhcGU6Y29ubmVjdG9yLWN1cnZhdHVyZT0iMCIgc3R5bGU9ImZpbGw6IzNGNTc2NTsiIGQ9Ik0wLDI4LjE4djcuMzZoNy4zNXYtNy4zNkgweiIvPiYjeGE7CQk8L2c+JiN4YTsJCTxnIGlkPSJzaGFwZTM3OTEtMTUiIHRyYW5zZm9ybT0idHJhbnNsYXRlKDI0LjQ4NjcsLTIwLjIxOSkiPiYjeGE7CQkJPHRpdGxlIGlkPSJ0aXRsZTIxMTM5Ij5TaGVldC4zNzkxPC90aXRsZT4mI3hhOwkJCTxwYXRoIGlkPSJwYXRoMjExNDEiIGlua3NjYXBlOmNvbm5lY3Rvci1jdXJ2YXR1cmU9IjAiIHN0eWxlPSJmaWxsOiMzRjU3NjU7IiBkPSJNMCwyOC4xOHY3LjM2aDcuMzV2LTcuMzZIMHoiLz4mI3hhOwkJPC9nPiYjeGE7CTwvZz4mI3hhOzwvZz4mI3hhOzwvc3ZnPg==;" vertex="1" parent="1">
          <mxGeometry x="799.5699999999999" y="372" width="66" height="36" as="geometry" />
        </mxCell>
        <mxCell id="mdQV8XXlaroIpFqQpkAV-15" value="flv" style="shape=image;verticalLabelPosition=bottom;labelBackgroundColor=#ffffff;verticalAlign=top;aspect=fixed;imageAspect=0;image=data:image/svg+xml,PHN2ZyB4bWxuczpjYz0iaHR0cDovL2NyZWF0aXZlY29tbW9ucy5vcmcvbnMjIiB4bWxuczpkYz0iaHR0cDovL3B1cmwub3JnL2RjL2VsZW1lbnRzLzEuMS8iIHhtbG5zOmlua3NjYXBlPSJodHRwOi8vd3d3Lmlua3NjYXBlLm9yZy9uYW1lc3BhY2VzL2lua3NjYXBlIiB4bWxuczpyZGY9Imh0dHA6Ly93d3cudzMub3JnLzE5OTkvMDIvMjItcmRmLXN5bnRheC1ucyMiIHhtbG5zOnNvZGlwb2RpPSJodHRwOi8vc29kaXBvZGkuc291cmNlZm9yZ2UubmV0L0RURC9zb2RpcG9kaS0wLmR0ZCIgeG1sbnM6c3ZnPSJodHRwOi8vd3d3LnczLm9yZy8yMDAwL3N2ZyIgeG1sbnM9Imh0dHA6Ly93d3cudzMub3JnLzIwMDAvc3ZnIiB4bWxuczp4bGluaz0iaHR0cDovL3d3dy53My5vcmcvMTk5OS94bGluayIgdmVyc2lvbj0iMS4xIiBpZD0ic3ZnMjY3OCIgaW5rc2NhcGU6dmVyc2lvbj0iMC45Mi4zICgyNDA1NTQ2LCAyMDE4LTAzLTExKSIgc29kaXBvZGk6ZG9jbmFtZT0iZGV2aWNlX2FuZHJvaWRfMS5zdmciIHg9IjBweCIgeT0iMHB4IiB2aWV3Qm94PSIwIDAgMzUuMTggNjcuODUiIHN0eWxlPSJlbmFibGUtYmFja2dyb3VuZDpuZXcgMCAwIDM1LjE4IDY3Ljg1OyIgeG1sOnNwYWNlPSJwcmVzZXJ2ZSI+JiN4YTs8c29kaXBvZGk6bmFtZWR2aWV3IGJvcmRlcmNvbG9yPSIjNjY2NjY2IiBib3JkZXJvcGFjaXR5PSIxIiBmaXQtbWFyZ2luLWJvdHRvbT0iMCIgZml0LW1hcmdpbi1sZWZ0PSIwIiBmaXQtbWFyZ2luLXJpZ2h0PSIwIiBmaXQtbWFyZ2luLXRvcD0iMCIgZ3JpZHRvbGVyYW5jZT0iMTAiIGd1aWRldG9sZXJhbmNlPSIxMCIgaWQ9Im5hbWVkdmlldzI2ODAiIGlua3NjYXBlOmN1cnJlbnQtbGF5ZXI9InN2ZzI2NzgiIGlua3NjYXBlOmN4PSIyMy40NTA4OCIgaW5rc2NhcGU6Y3k9IjQ1LjI0MDkyOCIgaW5rc2NhcGU6cGFnZW9wYWNpdHk9IjAiIGlua3NjYXBlOnBhZ2VzaGFkb3c9IjIiIGlua3NjYXBlOndpbmRvdy1oZWlnaHQ9IjEwMTciIGlua3NjYXBlOndpbmRvdy1tYXhpbWl6ZWQ9IjEiIGlua3NjYXBlOndpbmRvdy13aWR0aD0iMTkyMCIgaW5rc2NhcGU6d2luZG93LXg9Ii04IiBpbmtzY2FwZTp3aW5kb3cteT0iLTgiIGlua3NjYXBlOnpvb209IjkuNTg1MzcwNiIgb2JqZWN0dG9sZXJhbmNlPSIxMCIgcGFnZWNvbG9yPSIjZmZmZmZmIiBzaG93Z3JpZD0iZmFsc2UiPiYjeGE7CTwvc29kaXBvZGk6bmFtZWR2aWV3PiYjeGE7PGcgaWQ9ImcyNjc2Ij4mI3hhOwk8dGl0bGUgaWQ9InRpdGxlMjYzNiI+UGFnZS0xPC90aXRsZT4mI3hhOwk8ZyBpZD0iZ3JvdXAzNDkxLTEiPiYjeGE7CQk8dGl0bGUgaWQ9InRpdGxlMjYzOCI+RGV2aWNlOiBBbmRyb2lkICMxPC90aXRsZT4mI3hhOwkJPGcgaWQ9InNoYXBlMzQ5Mi0yIj4mI3hhOwkJCTx0aXRsZSBpZD0idGl0bGUyNjQwIj5TaGVldC4zNDkyPC90aXRsZT4mI3hhOwkJCTxwYXRoIGlkPSJwYXRoMjY0MiIgaW5rc2NhcGU6Y29ubmVjdG9yLWN1cnZhdHVyZT0iMCIgc3R5bGU9ImZpbGw6IzNGNTc2NTsiIGQ9Ik0zNC42OCw4LjdjLTAuMDYsMC0wLjA2LDAtMC4wNiwwICAgICBjMC00Ljc2LDAtNC43NiwwLTQuNzZjMC0xLjgzLTEuNDgtMi44OC0zLjMyLTIuODhjMCwwLTMuMjItMS4wNi0xMy4yNi0xLjA2QzcuOTQsMCwzLjg5LDEuMDYsMy44OSwxLjA2ICAgICBjLTEuODMsMC0zLjMzLDEuMDUtMy4zMywyLjg4YzAsOS41NywwLDkuNTcsMCw5LjU3QzAuMjMsMTMuOCwwLDE0LjE4LDAsMTQuNjhjMCw4LjI1LDAsOC4yNSwwLDguMjVjMCwwLjUsMC4yMywwLjg5LDAuNTYsMS4xNyAgICAgYzAsNDAuNDEsMCw0MC40MSwwLDQwLjQxYzAsMS44MywxLjUsMi43MSwzLjMzLDIuNzFjMCwwLDUuMSwwLjcyLDEzLjg4LDAuNjJjOC44MS0wLjExLDEzLjUzLTAuNjIsMTMuNTMtMC42MiAgICAgYzEuODQsMCwzLjMyLTAuODgsMy4zMi0yLjcxYzAtNTEuMzMsMC01MS4zMywwLTUxLjMzczAsMCwwLjA2LDBjMC4yOSwwLDAuNS0wLjIxLDAuNS0wLjQ5YzAtMy40OSwwLTMuNDksMC0zLjQ5ICAgICBDMzUuMTgsOC45MywzNC45Nyw4LjcsMzQuNjgsOC43eiIvPiYjeGE7CQk8L2c+JiN4YTsJCTxnIGlkPSJzaGFwZTM0OTMtNCIgdHJhbnNmb3JtPSJ0cmFuc2xhdGUoMy4wMDEzOSwtNy44MDM4MSkiPiYjeGE7CQkJPHRpdGxlIGlkPSJ0aXRsZTI2NDUiPlNoZWV0LjM0OTM8L3RpdGxlPiYjeGE7CQkJPHBhdGggaWQ9InBhdGgyNjQ3IiBpbmtzY2FwZTpjb25uZWN0b3ItY3VydmF0dXJlPSIwIiBzdHlsZT0iZmlsbDojOEQ5RkIwOyIgZD0iTTAsMTMuNTZ2NTQuMjhoMjkuMTdWMTMuNTZIMHoiLz4mI3hhOwkJPC9nPiYjeGE7CQk8ZyBpZD0ic2hhcGUzNDk0LTYiIHRyYW5zZm9ybT0idHJhbnNsYXRlKDE2LjY4NzcsLTYzLjQwNDEpIj4mI3hhOwkJCTx0aXRsZSBpZD0idGl0bGUyNjUwIj5TaGVldC4zNDk0PC90aXRsZT4mI3hhOwkJCTxwYXRoIGlkPSJwYXRoMjY1MiIgaW5rc2NhcGU6Y29ubmVjdG9yLWN1cnZhdHVyZT0iMCIgc3R5bGU9ImZpbGw6IzhFOUZCMDsiIGQ9Ik0wLDY2Ljk0YzAtMC41LDAuMzktMC45LDAuODQtMC45ICAgICBjMC40NywwLDAuODQsMC40LDAuODQsMC45YzAsMC41MS0wLjM3LDAuOS0wLjg0LDAuOUMwLjM5LDY3Ljg0LDAsNjcuNDUsMCw2Ni45NHoiLz4mI3hhOwkJPC9nPiYjeGE7CQk8ZyBpZD0ic2hhcGUzNDk1LTgiIHRyYW5zZm9ybT0idHJhbnNsYXRlKDUuNjQyNjEsLTYzLjg4MzQpIj4mI3hhOwkJCTx0aXRsZSBpZD0idGl0bGUyNjU1Ij5TaGVldC4zNDk1PC90aXRsZT4mI3hhOwkJCTxwYXRoIGlkPSJwYXRoMjY1NyIgaW5rc2NhcGU6Y29ubmVjdG9yLWN1cnZhdHVyZT0iMCIgc3R5bGU9ImZpbGw6IzhFOUZCMDsiIGQ9Ik0wLDY3LjQyQzAsNjcuMTksMC4yLDY3LDAuNDIsNjcgICAgIGMwLjI0LDAsMC40MiwwLjE5LDAuNDIsMC40MmMwLDAuMjQtMC4xOCwwLjQyLTAuNDIsMC40MkMwLjIsNjcuODQsMCw2Ny42NiwwLDY3LjQyeiIvPiYjeGE7CQk8L2c+JiN4YTsJCTxnIGlkPSJzaGFwZTM0OTYtMTAiIHRyYW5zZm9ybT0idHJhbnNsYXRlKDEwLjIwNDcsLTMwLjgxMDgpIj4mI3hhOwkJCTx0aXRsZSBpZD0idGl0bGUyNjYwIj5TaGVldC4zNDk2PC90aXRsZT4mI3hhOwkJCTxwYXRoIGlkPSJwYXRoMjY2MiIgaW5rc2NhcGU6Y29ubmVjdG9yLWN1cnZhdHVyZT0iMCIgc3R5bGU9ImZpbGw6I0ZGRkZGRjsiIGQ9Ik0xMy43Miw2MS40OWMtMC41NywwLTEuMDUsMC40OS0xLjA1LDEuMDkgICAgIGMwLDQuMTgsMCw0LjE4LDAsNC4xOGMwLDAuNiwwLjQ4LDEuMDgsMS4wNSwxLjA4YzAuNTgsMCwxLjA1LTAuNDgsMS4wNS0xLjA4YzAtNC4xOCwwLTQuMTgsMC00LjE4ICAgICBDMTQuNzcsNjEuOTgsMTQuMyw2MS40OSwxMy43Miw2MS40OXogTTEuMDcsNjEuNDlDMC40OCw2MS40OSwwLDYxLjk4LDAsNjIuNThjMCw0LjE4LDAsNC4xOCwwLDQuMThjMCwwLjYsMC40OCwxLjA4LDEuMDcsMS4wOCAgICAgYzAuNTcsMCwxLjA1LTAuNDgsMS4wNS0xLjA4YzAtNC4xOCwwLTQuMTgsMC00LjE4QzIuMTIsNjEuOTgsMS42NCw2MS40OSwxLjA3LDYxLjQ5eiIvPiYjeGE7CQk8L2c+JiN4YTsJCTxnIGlkPSJzaGFwZTM0OTctMTIiIHRyYW5zZm9ybT0idHJhbnNsYXRlKDEyLjk2NiwtMjUuMjk4NykiPiYjeGE7CQkJPHRpdGxlIGlkPSJ0aXRsZTI2NjUiPlNoZWV0LjM0OTc8L3RpdGxlPiYjeGE7CQkJPHBhdGggaWQ9InBhdGgyNjY3IiBpbmtzY2FwZTpjb25uZWN0b3ItY3VydmF0dXJlPSIwIiBzdHlsZT0iZmlsbDojRkZGRkZGOyIgZD0iTTAsNTYuMDljMCw3LjU4LDAsNy41OCwwLDcuNTggICAgIGMwLDAuNDUsMC4zNiwwLjgxLDAuODEsMC44MWMwLjkzLDAsMC45MywwLDAuOTMsMGMwLDIuMjksMCwyLjI5LDAsMi4yOWMwLDAuNiwwLjQ3LDEuMDcsMS4wNCwxLjA3czEuMDUtMC40NywxLjA1LTEuMDcgICAgIGMwLTIuMjksMC0yLjI5LDAtMi4yOWMxLjYsMCwxLjYsMCwxLjYsMGMwLDIuMjksMCwyLjI5LDAsMi4yOWMwLDAuNiwwLjQ4LDEuMDcsMS4wNSwxLjA3czEuMDQtMC40NywxLjA0LTEuMDcgICAgIGMwLTIuMjksMC0yLjI5LDAtMi4yOWMwLjkzLDAsMC45MywwLDAuOTMsMGMwLjQ1LDAsMC43OS0wLjM2LDAuNzktMC44MWMwLTcuNTgsMC03LjU4LDAtNy41OEwwLDU2LjA5eiIvPiYjeGE7CQk8L2c+JiN4YTsJCTxnIGlkPSJzaGFwZTM0OTgtMTQiIHRyYW5zZm9ybT0idHJhbnNsYXRlKDEyLjk2NiwtMzcuNzYwOSkiPiYjeGE7CQkJPHRpdGxlIGlkPSJ0aXRsZTI2NzAiPlNoZWV0LjM0OTg8L3RpdGxlPiYjeGE7CQkJPHBhdGggaWQ9InBhdGgyNjcyIiBpbmtzY2FwZTpjb25uZWN0b3ItY3VydmF0dXJlPSIwIiBzdHlsZT0iZmlsbDojRkZGRkZGOyIgZD0iTTYuODMsNjQuNTZjMC44NS0xLjI1LDAuODUtMS4yNSwwLjg1LTEuMjUgICAgIGMwLjA1LTAuMDcsMC4wMy0wLjE2LTAuMDEtMC4yMWMtMC4wOC0wLjA2LTAuMTctMC4wMy0wLjIzLDAuMDVjLTAuOSwxLjMyLTAuOSwxLjMyLTAuOSwxLjMyYy0wLjU4LTAuMjQtMS4yMy0wLjM5LTEuOTItMC4zOSAgICAgYy0wLjY3LDAtMS4zMiwwLjE1LTEuOSwwLjM5Yy0wLjktMS4zMi0wLjktMS4zMi0wLjktMS4zMmMtMC4wNi0wLjA4LTAuMTUtMC4xMS0wLjIzLTAuMDVjLTAuMDQsMC4wNS0wLjA2LDAuMTQtMC4wMSwwLjIxICAgICBjMC44NSwxLjI1LDAuODUsMS4yNSwwLjg1LDEuMjVDMS4wOCw2NS4yLDAuMTIsNjYuNDMsMCw2Ny44NGM5LjI0LDAsOS4yNCwwLDkuMjQsMEM5LjE0LDY2LjQzLDguMTgsNjUuMiw2LjgzLDY0LjU2eiAgICAgIE0yLjY5LDY2LjU1Yy0wLjI5LDAtMC41My0wLjI0LTAuNTMtMC41MmMwLTAuMjcsMC4yNC0wLjUxLDAuNTMtMC41MWMwLjI4LDAsMC40OSwwLjI0LDAuNDksMC41MSAgICAgQzMuMTgsNjYuMzEsMi45Nyw2Ni41NSwyLjY5LDY2LjU1eiBNNi42NSw2Ni41NWMtMC4yOSwwLTAuNS0wLjI0LTAuNS0wLjUyYzAtMC4yNywwLjIxLTAuNTEsMC41LTAuNTEgICAgIGMwLjI4LDAsMC41MSwwLjI0LDAuNTEsMC41MUM3LjE2LDY2LjMxLDYuOTMsNjYuNTUsNi42NSw2Ni41NXoiLz4mI3hhOwkJPC9nPiYjeGE7CTwvZz4mI3hhOzwvZz4mI3hhOzwvc3ZnPg==;" vertex="1" parent="1">
          <mxGeometry x="947.5699999999999" y="372" width="19.56" height="38" as="geometry" />
        </mxCell>
        <mxCell id="mdQV8XXlaroIpFqQpkAV-16" value="hls" style="shape=image;verticalLabelPosition=bottom;labelBackgroundColor=#ffffff;verticalAlign=top;aspect=fixed;imageAspect=0;image=data:image/svg+xml,PHN2ZyB4bWxuczpjYz0iaHR0cDovL2NyZWF0aXZlY29tbW9ucy5vcmcvbnMjIiB4bWxuczpkYz0iaHR0cDovL3B1cmwub3JnL2RjL2VsZW1lbnRzLzEuMS8iIHhtbG5zOmlua3NjYXBlPSJodHRwOi8vd3d3Lmlua3NjYXBlLm9yZy9uYW1lc3BhY2VzL2lua3NjYXBlIiB4bWxuczpyZGY9Imh0dHA6Ly93d3cudzMub3JnLzE5OTkvMDIvMjItcmRmLXN5bnRheC1ucyMiIHhtbG5zOnNvZGlwb2RpPSJodHRwOi8vc29kaXBvZGkuc291cmNlZm9yZ2UubmV0L0RURC9zb2RpcG9kaS0wLmR0ZCIgeG1sbnM6c3ZnPSJodHRwOi8vd3d3LnczLm9yZy8yMDAwL3N2ZyIgeG1sbnM9Imh0dHA6Ly93d3cudzMub3JnLzIwMDAvc3ZnIiB4bWxuczp4bGluaz0iaHR0cDovL3d3dy53My5vcmcvMTk5OS94bGluayIgdmVyc2lvbj0iMS4xIiBpZD0ic3ZnNDE2OSIgaW5rc2NhcGU6dmVyc2lvbj0iMC45Mi4zICgyNDA1NTQ2LCAyMDE4LTAzLTExKSIgc29kaXBvZGk6ZG9jbmFtZT0iZGV2aWNlX2lwaG9uZS5zdmciIHg9IjBweCIgeT0iMHB4IiB2aWV3Qm94PSIwIDAgMjguODEgNTguMTIiIHN0eWxlPSJlbmFibGUtYmFja2dyb3VuZDpuZXcgMCAwIDI4LjgxIDU4LjEyOyIgeG1sOnNwYWNlPSJwcmVzZXJ2ZSI+JiN4YTs8c29kaXBvZGk6bmFtZWR2aWV3IGJvcmRlcmNvbG9yPSIjNjY2NjY2IiBib3JkZXJvcGFjaXR5PSIxIiBmaXQtbWFyZ2luLWJvdHRvbT0iMCIgZml0LW1hcmdpbi1sZWZ0PSIwIiBmaXQtbWFyZ2luLXJpZ2h0PSIwIiBmaXQtbWFyZ2luLXRvcD0iMCIgZ3JpZHRvbGVyYW5jZT0iMTAiIGd1aWRldG9sZXJhbmNlPSIxMCIgaWQ9Im5hbWVkdmlldzQxNzEiIGlua3NjYXBlOmN1cnJlbnQtbGF5ZXI9InN2ZzQxNjkiIGlua3NjYXBlOmN4PSIxOS4yMDg4NTYiIGlua3NjYXBlOmN5PSIzOC43NDg4NDQiIGlua3NjYXBlOnBhZ2VvcGFjaXR5PSIwIiBpbmtzY2FwZTpwYWdlc2hhZG93PSIyIiBpbmtzY2FwZTp3aW5kb3ctaGVpZ2h0PSIxMDE3IiBpbmtzY2FwZTp3aW5kb3ctbWF4aW1pemVkPSIxIiBpbmtzY2FwZTp3aW5kb3ctd2lkdGg9IjE5MjAiIGlua3NjYXBlOndpbmRvdy14PSItOCIgaW5rc2NhcGU6d2luZG93LXk9Ii04IiBpbmtzY2FwZTp6b29tPSIxMS4xODg3IiBvYmplY3R0b2xlcmFuY2U9IjEwIiBwYWdlY29sb3I9IiNmZmZmZmYiIHNob3dncmlkPSJmYWxzZSI+JiN4YTsJPC9zb2RpcG9kaTpuYW1lZHZpZXc+JiN4YTs8ZyBpZD0iZzQxNjciIHRyYW5zZm9ybT0idHJhbnNsYXRlKC0xLjczNjE4NDllLTUpIj4mI3hhOwk8dGl0bGUgaWQ9InRpdGxlNDEyMiI+UGFnZS0xPC90aXRsZT4mI3hhOwk8ZyBpZD0iZ3JvdXAzNDU4LTEiPiYjeGE7CQk8dGl0bGUgaWQ9InRpdGxlNDEyNCI+RGV2aWNlOiBpUGhvbmU8L3RpdGxlPiYjeGE7CQk8ZyBpZD0ic2hhcGUzNDU5LTIiPiYjeGE7CQkJPHRpdGxlIGlkPSJ0aXRsZTQxMjYiPlNoZWV0LjM0NTk8L3RpdGxlPiYjeGE7CQkJPHBhdGggaWQ9InBhdGg0MTI4IiBpbmtzY2FwZTpjb25uZWN0b3ItY3VydmF0dXJlPSIwIiBzdHlsZT0iZmlsbDojM0Y1NzY1OyIgZD0iTTI4LjgxLDUzLjhjMCwyLjQyLTEuOSw0LjMyLTQuMzQsNC4zMiAgICAgYy0yMC4wNywwLTIwLjA3LDAtMjAuMDcsMGMtMi40MywwLTQuNC0xLjktNC40LTQuMzJDMCw0LjM3LDAsNC4zNywwLDQuMzdDMCwxLjk1LDEuOTcsMCw0LjQsMGMyMC4wNywwLDIwLjA3LDAsMjAuMDcsMCAgICAgYzIuNDQsMCw0LjM0LDEuOTUsNC4zNCw0LjM3VjUzLjh6Ii8+JiN4YTsJCTwvZz4mI3hhOwkJPGcgaWQ9InNoYXBlMzQ2MC00IiB0cmFuc2Zvcm09InRyYW5zbGF0ZSgxMi42MDU4LC01NC40MDIpIj4mI3hhOwkJCTx0aXRsZSBpZD0idGl0bGU0MTMxIj5TaGVldC4zNDYwPC90aXRsZT4mI3hhOwkJCTxwYXRoIGlkPSJwYXRoNDEzMyIgaW5rc2NhcGU6Y29ubmVjdG9yLWN1cnZhdHVyZT0iMCIgc3R5bGU9ImZpbGw6IzhFOUZCMDsiIGQ9Ik0zLjg0LDU3Ljg2YzAsMC4xNy0wLjA5LDAuMjYtMC4yNCwwLjI2ICAgICBjLTMuMzEsMC0zLjMxLDAtMy4zMSwwQzAuMTUsNTguMTIsMCw1OC4wMywwLDU3Ljg2bDAsMGMwLTAuMTMsMC4xNS0wLjIyLDAuMjktMC4yMmMzLjMxLDAsMy4zMSwwLDMuMzEsMCAgICAgQzMuNzUsNTcuNjQsMy44NCw1Ny43MywzLjg0LDU3Ljg2eiIvPiYjeGE7CQk8L2c+JiN4YTsJCTxnIGlkPSJzaGFwZTM0NjEtNiIgdHJhbnNmb3JtPSJ0cmFuc2xhdGUoMTIuNjA1OCwtMS43OTc0MikiPiYjeGE7CQkJPHRpdGxlIGlkPSJ0aXRsZTQxMzYiPlNoZWV0LjM0NjE8L3RpdGxlPiYjeGE7CQkJPHBhdGggaWQ9InBhdGg0MTM4IiBpbmtzY2FwZTpjb25uZWN0b3ItY3VydmF0dXJlPSIwIiBzdHlsZT0iZmlsbDojOEU5RkIwOyIgZD0iTTAsNTYuMjZjMC0xLjAyLDAuODYtMS44NiwxLjkyLTEuODYgICAgIGMxLjA3LDAsMS45MiwwLjg0LDEuOTIsMS44NmMwLDEuMDMtMC44NSwxLjg2LTEuOTIsMS44NkMwLjg2LDU4LjEyLDAsNTcuMjksMCw1Ni4yNnoiLz4mI3hhOwkJPC9nPiYjeGE7CQk8ZyBpZD0ic2hhcGUzNDYyLTgiIHRyYW5zZm9ybT0idHJhbnNsYXRlKDEwLjA4NDcsLTU0LjE2MjMpIj4mI3hhOwkJCTx0aXRsZSBpZD0idGl0bGU0MTQxIj5TaGVldC4zNDYyPC90aXRsZT4mI3hhOwkJCTxwYXRoIGlkPSJwYXRoNDE0MyIgaW5rc2NhcGU6Y29ubmVjdG9yLWN1cnZhdHVyZT0iMCIgc3R5bGU9ImZpbGw6IzhFOUZCMDsiIGQ9Ik0wLDU3LjY0YzAtMC4yNiwwLjIyLTAuNDgsMC40OC0wLjQ4ICAgICBjMC4yNywwLDAuNDgsMC4yMiwwLjQ4LDAuNDhjMCwwLjI3LTAuMjEsMC40OC0wLjQ4LDAuNDhDMC4yMiw1OC4xMiwwLDU3LjkxLDAsNTcuNjR6Ii8+JiN4YTsJCTwvZz4mI3hhOwkJPGcgaWQ9InNoYXBlMzQ2My0xMCIgdHJhbnNmb3JtPSJ0cmFuc2xhdGUoMTQuMjg2NiwtNTYuMzE5MykiPiYjeGE7CQkJPHRpdGxlIGlkPSJ0aXRsZTQxNDYiPlNoZWV0LjM0NjM8L3RpdGxlPiYjeGE7CQkJPHBhdGggaWQ9InBhdGg0MTQ4IiBpbmtzY2FwZTpjb25uZWN0b3ItY3VydmF0dXJlPSIwIiBzdHlsZT0iZmlsbDojOEU5RkIwOyIgZD0iTTAsNTcuODhjMC0wLjEzLDAuMTQtMC4yNCwwLjMtMC4yNCAgICAgYzAuMTcsMCwwLjMsMC4xMSwwLjMsMC4yNHMtMC4xMywwLjI0LTAuMywwLjI0QzAuMTQsNTguMTIsMCw1OC4wMSwwLDU3Ljg4eiIvPiYjeGE7CQk8L2c+JiN4YTsJCTxnIGlkPSJzaGFwZTM0NjQtMTIiIHRyYW5zZm9ybT0idHJhbnNsYXRlKDEuNjgwNzgsLTYuMzUwODkpIj4mI3hhOwkJCTx0aXRsZSBpZD0idGl0bGU0MTUxIj5TaGVldC4zNDY0PC90aXRsZT4mI3hhOwkJCTxwYXRoIGlkPSJwYXRoNDE1MyIgaW5rc2NhcGU6Y29ubmVjdG9yLWN1cnZhdHVyZT0iMCIgc3R5bGU9ImZpbGw6IzhEOUZCMDsiIGQ9Ik0wLDEyLjd2NDUuNDJoMjUuNjlWMTIuN0gweiIvPiYjeGE7CQk8L2c+JiN4YTsJCTxnIGlkPSJzaGFwZTM0NjUtMTQiIHRyYW5zZm9ybT0idHJhbnNsYXRlKDguNDM4NDgsLTIzLjYwNjIpIj4mI3hhOwkJCTx0aXRsZSBpZD0idGl0bGU0MTU2Ij5TaGVldC4zNDY1PC90aXRsZT4mI3hhOwkJCTxwYXRoIGlkPSJwYXRoNDE1OCIgaW5rc2NhcGU6Y29ubmVjdG9yLWN1cnZhdHVyZT0iMCIgc3R5bGU9ImZpbGw6I0ZGRkZGRjsiIGQ9Ik0xMi4zMyw1NC4yOWMtMC4zNCwwLjczLTAuNTEsMS4wNy0wLjk0LDEuNzIgICAgIGMtMC42LDAuOTUtMS40NiwyLjA3LTIuNSwyLjExYy0wLjk0LDAtMS4yLTAuNjUtMi40NS0wLjZjLTEuMjgsMC0xLjU0LDAuNi0yLjQ5LDAuNmMtMS4wNy0wLjA0LTEuODUtMS4wNy0yLjQ1LTEuOTggICAgIGMtMS43Mi0yLjU4LTEuODktNS42LTAuODYtNy4yNGMwLjc3LTEuMTIsMS45NC0xLjgxLDMuMDEtMS44MWMxLjEyLDAsMS44NSwwLjY1LDIuNzUsMC42NXMxLjQ3LTAuNjUsMi43NS0wLjY1ICAgICBjMC45OSwwLDIuMDMsMC41NiwyLjc1LDEuNDdDOS40OSw0OS44OSw5Ljg5LDUzLjM0LDEyLjMzLDU0LjI5eiIvPiYjeGE7CQk8L2c+JiN4YTsJCTxnIGlkPSJzaGFwZTM0NjYtMTYiIHRyYW5zZm9ybT0idHJhbnNsYXRlKDEzLjU3NjYsLTM0LjUxMDUpIj4mI3hhOwkJCTx0aXRsZSBpZD0idGl0bGU0MTYxIj5TaGVldC4zNDY2PC90aXRsZT4mI3hhOwkJCTxwYXRoIGlkPSJwYXRoNDE2MyIgaW5rc2NhcGU6Y29ubmVjdG9yLWN1cnZhdHVyZT0iMCIgc3R5bGU9ImZpbGw6I0ZGRkZGRjsiIGQ9Ik0yLjIsNTYuOTZjMC40NS0wLjYsMC43OS0xLjQxLDAuNjctMi4zMiAgICAgYy0wLjcyLDAuMDktMS42LDAuNTYtMi4xNSwxLjIxYy0wLjQ3LDAuNTUtMC44NSwxLjQxLTAuNjgsMi4yN0MwLjg1LDU4LjEyLDEuNzMsNTcuNjQsMi4yLDU2Ljk2eiIvPiYjeGE7CQk8L2c+JiN4YTsJPC9nPiYjeGE7PC9nPiYjeGE7PC9zdmc+;" vertex="1" parent="1">
          <mxGeometry x="987.5699999999999" y="372" width="19" height="38" as="geometry" />
        </mxCell>
        <mxCell id="mdQV8XXlaroIpFqQpkAV-17" value="flv/hls" style="shape=image;verticalLabelPosition=bottom;labelBackgroundColor=#ffffff;verticalAlign=top;aspect=fixed;imageAspect=0;image=data:image/svg+xml,PHN2ZyB4bWxuczpjYz0iaHR0cDovL2NyZWF0aXZlY29tbW9ucy5vcmcvbnMjIiB4bWxuczpkYz0iaHR0cDovL3B1cmwub3JnL2RjL2VsZW1lbnRzLzEuMS8iIHhtbG5zOmlua3NjYXBlPSJodHRwOi8vd3d3Lmlua3NjYXBlLm9yZy9uYW1lc3BhY2VzL2lua3NjYXBlIiB4bWxuczpyZGY9Imh0dHA6Ly93d3cudzMub3JnLzE5OTkvMDIvMjItcmRmLXN5bnRheC1ucyMiIHhtbG5zOnNvZGlwb2RpPSJodHRwOi8vc29kaXBvZGkuc291cmNlZm9yZ2UubmV0L0RURC9zb2RpcG9kaS0wLmR0ZCIgeG1sbnM6c3ZnPSJodHRwOi8vd3d3LnczLm9yZy8yMDAwL3N2ZyIgeG1sbnM9Imh0dHA6Ly93d3cudzMub3JnLzIwMDAvc3ZnIiB4bWxuczp4bGluaz0iaHR0cDovL3d3dy53My5vcmcvMTk5OS94bGluayIgdmVyc2lvbj0iMS4xIiBpZD0ic3ZnMzc5NyIgaW5rc2NhcGU6dmVyc2lvbj0iMC45Mi4zICgyNDA1NTQ2LCAyMDE4LTAzLTExKSIgc29kaXBvZGk6ZG9jbmFtZT0iZGV2aWNlX2lwYWRfMS5zdmciIHg9IjBweCIgeT0iMHB4IiB2aWV3Qm94PSIwIDAgNDMuNDYgMjkuNDEiIHN0eWxlPSJlbmFibGUtYmFja2dyb3VuZDpuZXcgMCAwIDQzLjQ2IDI5LjQxOyIgeG1sOnNwYWNlPSJwcmVzZXJ2ZSI+JiN4YTs8c29kaXBvZGk6bmFtZWR2aWV3IGJvcmRlcmNvbG9yPSIjNjY2NjY2IiBib3JkZXJvcGFjaXR5PSIxIiBmaXQtbWFyZ2luLWJvdHRvbT0iMCIgZml0LW1hcmdpbi1sZWZ0PSIwIiBmaXQtbWFyZ2luLXJpZ2h0PSIwIiBmaXQtbWFyZ2luLXRvcD0iMCIgZ3JpZHRvbGVyYW5jZT0iMTAiIGd1aWRldG9sZXJhbmNlPSIxMCIgaWQ9Im5hbWVkdmlldzM3OTkiIGlua3NjYXBlOmN1cnJlbnQtbGF5ZXI9InN2ZzM3OTciIGlua3NjYXBlOmN4PSIyOC45NzU5MiIgaW5rc2NhcGU6Y3k9IjE5LjYwNzA1NyIgaW5rc2NhcGU6cGFnZW9wYWNpdHk9IjAiIGlua3NjYXBlOnBhZ2VzaGFkb3c9IjIiIGlua3NjYXBlOndpbmRvdy1oZWlnaHQ9IjEwMTciIGlua3NjYXBlOndpbmRvdy1tYXhpbWl6ZWQ9IjEiIGlua3NjYXBlOndpbmRvdy13aWR0aD0iMTkyMCIgaW5rc2NhcGU6d2luZG93LXg9Ii04IiBpbmtzY2FwZTp3aW5kb3cteT0iLTgiIGlua3NjYXBlOnpvb209IjIyLjExMDIxOCIgb2JqZWN0dG9sZXJhbmNlPSIxMCIgcGFnZWNvbG9yPSIjZmZmZmZmIiBzaG93Z3JpZD0iZmFsc2UiPiYjeGE7CTwvc29kaXBvZGk6bmFtZWR2aWV3PiYjeGE7PGcgaWQ9ImczNzk1IiB0cmFuc2Zvcm09InRyYW5zbGF0ZSgwLC00LjY0NzczNDllLTUpIj4mI3hhOwk8dGl0bGUgaWQ9InRpdGxlMzc3MCI+UGFnZS0xPC90aXRsZT4mI3hhOwk8ZyBpZD0iZ3JvdXAzMjMxLTEiPiYjeGE7CQk8dGl0bGUgaWQ9InRpdGxlMzc3MiI+RGV2aWNlOiBpUGFkICMxPC90aXRsZT4mI3hhOwkJPGcgaWQ9InNoYXBlMzIzMi0yIj4mI3hhOwkJCTx0aXRsZSBpZD0idGl0bGUzNzc0Ij5TaGVldC4zMjMyPC90aXRsZT4mI3hhOwkJCTxwYXRoIGlkPSJwYXRoMzc3NiIgaW5rc2NhcGU6Y29ubmVjdG9yLWN1cnZhdHVyZT0iMCIgc3R5bGU9ImZpbGw6IzNGNTc2NTsiIGQ9Ik0xLjc2LDI5LjQxQzAuODgsMjkuNDEsMCwyOC41MywwLDI3LjY1ICAgICBDMCwxLjgsMCwxLjgsMCwxLjhDMCwwLjkyLDAuODgsMCwxLjc2LDBjMzkuOTgsMCwzOS45OCwwLDM5Ljk4LDBjMC44OCwwLDEuNzIsMC45MiwxLjcyLDEuOGMwLDI1Ljg1LDAsMjUuODUsMCwyNS44NSAgICAgYzAsMC44OC0wLjg0LDEuNzYtMS43MiwxLjc2SDEuNzZ6Ii8+JiN4YTsJCTwvZz4mI3hhOwkJPGcgaWQ9InNoYXBlMzIzMy00IiB0cmFuc2Zvcm09InRyYW5zbGF0ZSgzLjA2MDg0LC0zLjY3NjE4KSI+JiN4YTsJCQk8dGl0bGUgaWQ9InRpdGxlMzc3OSI+U2hlZXQuMzIzMzwvdGl0bGU+JiN4YTsJCQk8cGF0aCBpZD0icGF0aDM3ODEiIGlua3NjYXBlOmNvbm5lY3Rvci1jdXJ2YXR1cmU9IjAiIHN0eWxlPSJmaWxsOiNGRkZGRkY7IiBkPSJNMCw3LjM1djIyLjA2aDM2LjczVjcuMzVIMHoiLz4mI3hhOwkJPC9nPiYjeGE7CQk8ZyBpZD0ic2hhcGUzMjM0LTYiIHRyYW5zZm9ybT0idHJhbnNsYXRlKDE1LjM2MzUsLTYuNzM5NjcpIj4mI3hhOwkJCTx0aXRsZSBpZD0idGl0bGUzNzg0Ij5TaGVldC4zMjM0PC90aXRsZT4mI3hhOwkJCTxwYXRoIGlkPSJwYXRoMzc4NiIgaW5rc2NhcGU6Y29ubmVjdG9yLWN1cnZhdHVyZT0iMCIgc3R5bGU9ImZpbGw6IzNGNTc2NTsiIGQ9Ik0xMC4yMywyMS44N2MwLTIuMDMsMS41My0yLjkxLDEuNTMtMy4xNCAgICAgYy0wLjg4LTEuMzQtMi4xOC0xLjU3LTIuODMtMS41N2MtMS4wNywwLTIuMTgsMC45MS0yLjgzLDAuOTFjLTAuNDIsMC0xLjUzLTAuOTEtMi40MS0wLjkxYy0xLjMsMC4yMy0yLjM3LDAuOTEtMy4wMiwyLjI1ICAgICBjLTEuMzQsMi40Ni0wLjQ2LDYuMDIsMC44NCw4LjAxYzAuNjksMC44OCwxLjM0LDEuOTksMi40MSwxLjk5YzAuODgsMCwxLjMtMC42NSwyLjQxLTAuNjVjMS4wNywwLDEuNTMsMC42NSwyLjYsMC42NSAgICAgYzAuODgsMCwxLjUzLTEuMTEsMi4xOC0xLjk5YzAuNjUtMS4xMSwxLjA3LTIuMjIsMS4wNy0yLjIyUzEwLjIzLDI0LjMyLDEwLjIzLDIxLjg3eiIvPiYjeGE7CQk8L2c+JiN4YTsJCTxnIGlkPSJzaGFwZTMyMzUtOCIgdHJhbnNmb3JtPSJ0cmFuc2xhdGUoMjEuNTkwNSwtMTkuMTUyOCkiPiYjeGE7CQkJPHRpdGxlIGlkPSJ0aXRsZTM3ODkiPlNoZWV0LjMyMzU8L3RpdGxlPiYjeGE7CQkJPHBhdGggaWQ9InBhdGgzNzkxIiBpbmtzY2FwZTpjb25uZWN0b3ItY3VydmF0dXJlPSIwIiBzdHlsZT0iZmlsbDojM0Y1NzY1OyIgZD0iTTIuMDksMjguM2MwLjQyLTAuNjUsMC44MS0xLjUzLDAuODEtMi40MSAgICAgYy0wLjgxLDAtMS42MSwwLjQ2LTIuMjIsMS4xMWMtMC40MiwwLjY1LTAuODQsMS41LTAuNjIsMi4zOEMwLjg3LDI5LjU3LDEuNjcsMjguOTYsMi4wOSwyOC4zeiIvPiYjeGE7CQk8L2c+JiN4YTsJPC9nPiYjeGE7PC9nPiYjeGE7PC9zdmc+;" vertex="1" parent="1">
          <mxGeometry x="882.5699999999999" y="381" width="43" height="29" as="geometry" />
        </mxCell>
      </root>
    </mxGraphModel>
  </diagram>
</mxfile>
